<svg xmlns="http://www.w3.org/2000/svg" viewBox="0 0 912.97 265.93"><defs><style>.cls-1{fill:none;stroke:#df8326;stroke-miterlimit:10;stroke-width:7px;}.cls-2{fill:#df8326;}</style></defs><g id="Layer_2" data-name="Layer 2"><g id="Layer_1-2" data-name="Layer 1"><line class="cls-1" x1="0.96" y1="262.57" x2="912.01" y2="3.37"/><polygon class="cls-2" points="256.32 233.87 256.32 229.31 244.8 229.31 244.8 205.87 239.68 205.87 239.68 233.87 256.32 233.87"/><rect class="cls-2" x="312.18" y="200.69" width="11.72" height="4.48"/><polygon class="cls-2" points="325.46 211.81 330.42 211.81 320.46 183.81 315.62 183.81 305.66 211.81 310.62 211.81 318.7 188.81 317.38 188.81 325.46 211.81"/><polygon class="cls-2" points="384.88 192.98 384.88 173.78 397.68 192.98 401.88 192.98 401.88 164.98 396.76 164.98 396.76 183.06 384.8 164.98 379.76 164.98 379.76 192.98 384.88 192.98"/><path class="cls-2" d="M477,149.18a12.88,12.88,0,0,0-4.9-5.08,14.91,14.91,0,0,0-14.24,0,12.82,12.82,0,0,0-4.9,5.08,17.41,17.41,0,0,0,0,15.34,12.82,12.82,0,0,0,4.9,5.08,14.91,14.91,0,0,0,14.24,0,12.88,12.88,0,0,0,4.9-5.08,17.41,17.41,0,0,0,0-15.34Zm-4.52,12.62a7.64,7.64,0,0,1-2.82,3.41,9.45,9.45,0,0,1-9.36,0,7.51,7.51,0,0,1-2.82-3.41,13.5,13.5,0,0,1,0-9.9,7.51,7.51,0,0,1,2.82-3.41,9.45,9.45,0,0,1,9.36,0,7.64,7.64,0,0,1,2.82,3.41,13.5,13.5,0,0,1,0,9.9Z"/><polygon class="cls-2" points="542.96 150.97 552.92 122.97 547.76 122.97 540 145.05 541.04 145.05 533.32 122.97 528.16 122.97 538.12 150.97 542.96 150.97"/><polygon class="cls-2" points="624.14 130.53 613.7 115.73 624.14 102.53 618.14 102.53 607.78 115.73 618.14 130.53 624.14 130.53"/><rect class="cls-2" x="602.26" y="102.53" width="5.12" height="28"/><rect class="cls-2" x="680" y="97.01" width="11.72" height="4.48"/><polygon class="cls-2" points="693.28 108.13 698.24 108.13 688.28 80.13 683.44 80.13 673.48 108.13 678.44 108.13 686.52 85.13 685.2 85.13 693.28 108.13"/></g></g></svg>