<svg xmlns="http://www.w3.org/2000/svg" viewBox="0 0 495.29 128.86"><defs><style>.cls-1{fill:none;}.cls-2{fill:#231f20;}.cls-3{fill:#ec008c;}</style></defs><g id="Layer_2" data-name="Layer 2"><g id="Layer_4" data-name="Layer 4"><path class="cls-1" d="M82.55,29.06H70.1a23,23,0,0,0,9.12,1.51c6.38-.41,10.62-5.4,10.46-12.61-.15-7-3.22-9.76-10.56-10.13-4.55-.23-6.7,1-7.67,2h11.1Z"/><path class="cls-2" d="M29.4,9.84H15.2V29.06h26v73H56.56v-73h.73a86.07,86.07,0,0,1-8.59-7.67A55.14,55.14,0,0,0,29.4,9.84Z"/><path class="cls-2" d="M80,.26C63.69.42,61.41,9.84,61.41,9.84h10c1-1,3.12-2.24,7.67-2C86.46,8.2,89.53,11,89.68,18c.16,7.21-4.08,12.2-10.46,12.61a23,23,0,0,1-9.12-1.51H57.29c5.07,3.9,11.22,7.37,17.84,8,17.35,1.58,22.62-9.5,22.62-19C97.75,6,89,.18,80,.26Z"/><path class="cls-2" d="M21.68,0C6.9-.47-.09,9.53,0,19c.08,9.12,3.89,14,11.39,16.9,8.57,3.35,14-1.46,14-1.46S7.65,33.69,8.13,19.52C8.42,11,12.8,7.67,20.65,8.08A33.6,33.6,0,0,1,29.4,9.84H43C37.15,5.06,29.43.27,21.68,0Z"/><path class="cls-2" d="M71.45,9.84H43a85.67,85.67,0,0,1,6.42,5.82c7.29,6.54,14.35,11.16,20.67,13.4H82.55V9.84Z"/><path class="cls-1" d="M49.43,15.66A85.67,85.67,0,0,0,43,9.84H29.4A55.14,55.14,0,0,1,48.7,21.39a86.07,86.07,0,0,0,8.59,7.67H70.1C63.78,26.82,56.72,22.2,49.43,15.66Z"/><polygon class="cls-1" points="459.57 86.72 459.57 86.72 459.57 86.72 459.57 86.72"/><path class="cls-1" d="M469.82,56H459.57V80.26c4.89,0,6.05,3,8.23,6.46h2Z"/><path class="cls-2" d="M474.5,98.62c-10.76-3-9.8-11.45-14.93-11.9h0V56h10.25V86.72h-2a18.82,18.82,0,0,0,8,7.5,21.78,21.78,0,0,0,9.4,2.54V40.6H454.43v5.12h-5.12v5.12h-5.13V102.1h41V99.93A30.6,30.6,0,0,1,474.5,98.62Z"/><path class="cls-2" d="M459.57,80.26v6.46h8.23C465.62,83.22,464.46,80.26,459.57,80.26Z"/><path class="cls-2" d="M485.21,96.76v3.17c8.51-.74,10.08-6.63,10.08-6.63A14.26,14.26,0,0,1,485.21,96.76Z"/><path class="cls-1" d="M475.81,94.22a18.82,18.82,0,0,1-8-7.5h-8.23c5.13.45,4.17,8.89,14.93,11.9a30.6,30.6,0,0,0,10.71,1.31V96.76A21.78,21.78,0,0,1,475.81,94.22Z"/><path class="cls-2" d="M433.9,72.86s4,7.39,10.91,6.42V85s-7.76-1-11.19-6.06Z"/><rect class="cls-2" x="118.15" y="13.69" width="15.38" height="15.38"/><polygon class="cls-2" points="369.71 29.07 354.34 29.07 362.03 13.69 377.4 13.69 369.71 29.07"/><path class="cls-1" d="M90.79,85.41a5.12,5.12,0,1,0-7.41-.65C88.25,80.93,90.69,85.23,90.79,85.41Z"/><path class="cls-2" d="M66.89,40.6V56H92.51v5.12H66.89V94.63c6.5-1.52,10.51-4.5,15.79-9.29.24-.22.47-.4.7-.58a5.06,5.06,0,0,1-1.11-3.16,5.12,5.12,0,1,1,8.52,3.81h0A47.54,47.54,0,0,1,76.65,96a46.23,46.23,0,0,1-9.76,3v3.08h41V40.6Z"/><path class="cls-2" d="M56.56,95.83v3.92A42.35,42.35,0,0,0,66.89,99V94.63A53.19,53.19,0,0,1,56.56,95.83Z"/><path class="cls-2" d="M87.39,86.72a5.09,5.09,0,0,0,3.4-1.31c-.1-.18-2.54-4.48-7.41-.65A5.1,5.1,0,0,0,87.39,86.72Z"/><path class="cls-1" d="M90.8,85.42h0a5.08,5.08,0,0,1-7.41-.65c-.23.18-.46.36-.7.58-5.28,4.79-9.29,7.77-15.79,9.29V99a46.23,46.23,0,0,0,9.76-3A47.54,47.54,0,0,0,90.8,85.42Z"/><polygon class="cls-1" points="309.32 61.09 309.32 61.1 309.34 61.07 309.33 61.08 309.32 61.09"/><path class="cls-1" d="M358.52,64.78l-.19-.2Z"/><path class="cls-1" d="M362.06,56a5.12,5.12,0,0,0-5.12,5.12,5.06,5.06,0,0,0,1.17,3.22c2.81-3.16,5.26-2.13,8.05-.17a5,5,0,0,0,1-3A5.13,5.13,0,0,0,362.06,56Z"/><path class="cls-2" d="M358.52,64.78l-.19-.2-.24-.26h0a5.06,5.06,0,0,1-1.17-3.22,5.13,5.13,0,0,1,10.25,0,5,5,0,0,1-1,3c3.5,2.46,7.56,6.39,13.61,5.36a26.06,26.06,0,0,0,2.8-.62V40.6h-41v61.5h41V86.72H356.94V81.6h25.63V74.31c-.55.14-1.13.27-1.73.39C370.68,76.67,360.65,67,358.52,64.78Z"/><path class="cls-2" d="M392.88,60.75c-2.48,3.55-4.68,6.54-10.31,8.13v5.43c8.33-2.08,10.36-6.22,10.36-6.22h0V60.74S392.9,60.73,392.88,60.75Z"/><path class="cls-2" d="M392.93,60.74v7.34C392.93,68,393.27,60.8,392.93,60.74Z"/><path class="cls-2" d="M358.11,64.31a2.88,2.88,0,0,0,.22.27l.19.2a5.1,5.1,0,0,0,7.64-.64C363.37,62.18,360.92,61.15,358.11,64.31Z"/><path class="cls-2" d="M358.09,64.32l.24.26a2.88,2.88,0,0,1-.22-.27Z"/><path class="cls-1" d="M379.77,69.5c-6,1-10.11-2.9-13.61-5.36a5.1,5.1,0,0,1-7.64.64c2.13,2.21,12.16,11.89,22.32,9.92.6-.12,1.18-.25,1.73-.39V68.88A26.06,26.06,0,0,1,379.77,69.5Z"/><path class="cls-1" d="M412.59,40.62h0Z"/><path class="cls-1" d="M418.56,65V63.76C418.54,64.16,418.55,64.58,418.56,65Z"/><path class="cls-2" d="M418.18,42.2c-1-1.12-2.73-1.51-4.54-1.58h-1.05a26.75,26.75,0,0,0-5.11.71,12.49,12.49,0,0,1,.83-.94V13.72H392.93v47c.34.06,0,7.21,0,7.34v34h15.38V56h8.24C418.73,52.07,421.47,46,418.18,42.2Z"/><path class="cls-2" d="M412.59,40.62h12a5.76,5.76,0,0,0-.81-1c-7-6.78-13.29-1.54-15.46.76v.23Z"/><path class="cls-2" d="M418.56,63.76V56h-2c-.4.71-.78,1.36-1.1,1.91-3.47,5.89,1.81,9.8,3.11,10.65V65C418.55,64.58,418.54,64.16,418.56,63.76Z"/><path class="cls-1" d="M418.56,63.76a6.61,6.61,0,0,1,.58-3.06c2.7-4.17,8.81-14.77,5.44-20.08H413.64c1.81.07,3.56.46,4.54,1.58,3.29,3.77.55,9.87-1.63,13.8h2Z"/><path class="cls-2" d="M424.58,40.62c3.37,5.31-2.74,15.91-5.44,20.08a6.61,6.61,0,0,0-.58,3.06V102.1h15.37V40.62Z"/><path class="cls-2" d="M408.31,40.39a12.49,12.49,0,0,0-.83.94,26.75,26.75,0,0,1,5.11-.71h-4.28Z"/><path class="cls-1" d="M41.19,95.25V74.18C36.85,83.19,33.84,93.4,41.19,95.25Z"/><path class="cls-2" d="M41.19,74.18V61.65c-3.37,8.52-10.82,20.7-9.82,28.4s8.16,9,9.82,9.2v-4C33.84,93.4,36.85,83.19,41.19,74.18Z"/><path class="cls-2" d="M41.54,99.56v-.28h-.11C41.44,99.41,41.47,99.52,41.54,99.56Z"/><path class="cls-2" d="M107.88,95v7.15c3.44.42,6.89.76,10.27,1.22V95.57A66.82,66.82,0,0,0,107.88,95Z"/><path class="cls-2" d="M133.53,101.09v9.47S138.72,105.69,133.53,101.09Z"/><path class="cls-2" d="M247.66,66.23h-1.87c-2.72,6.93-11.25,9.08-16.47,7.25l-1.55,6.19a18.72,18.72,0,0,0,19.89-9V66.23Z"/><path class="cls-1" d="M263,56V61.1h4.54c1.3-1.65,2.64-3.44,3.73-5.13Z"/><path class="cls-1" d="M271.38,38.57c-2.94-.92-8-.78-9.68,2h12.36A4.77,4.77,0,0,0,271.38,38.57Z"/><path class="cls-2" d="M281.81,40.6c.61,3.65-.28,8.07-2.18,12.87-.36.84-.78,1.68-1.23,2.5h5.15V40.6Z"/><path class="cls-2" d="M271.38,38.57a4.77,4.77,0,0,1,2.68,2h7.75c-.7-4.22-3.4-7.42-9-9s-13.14,1.27-16.08,9h4.94C263.42,37.79,268.44,37.65,271.38,38.57Z"/><path class="cls-2" d="M267.58,61.1h.59v5.13h3.42A120.75,120.75,0,0,0,278.4,56h-7.09C270.22,57.66,268.88,59.45,267.58,61.1Z"/><path class="cls-1" d="M281.81,40.6h-7.75c1.71,2.68,1.11,7.3-.91,12.07a22.17,22.17,0,0,1-1.84,3.3h7.09c.45-.82.87-1.66,1.23-2.5C281.53,48.67,282.42,44.25,281.81,40.6Z"/><path class="cls-1" d="M263,81.61h-2.3a51.4,51.4,0,0,0-2.82,5.11H263Z"/><path class="cls-2" d="M247,95.67a47.45,47.45,0,0,1,2.31-9h-6.77V102.1h4.25A25.8,25.8,0,0,1,247,95.67Z"/><path class="cls-2" d="M260.74,81.61h-2.83V76.48h-3.54a47.55,47.55,0,0,0-5.07,10.24h8.62A51.4,51.4,0,0,1,260.74,81.61Z"/><polygon class="cls-1" points="309.32 61.09 309.32 61.1 309.34 61.08 309.33 61.08 309.32 61.09"/><path class="cls-2" d="M309.32,56.28V13.69H294V81.85C297.88,72,302.74,59,309.32,56.28Z"/><path class="cls-2" d="M309.32,61.09h0l1.46-2.92L312,55.76a6.36,6.36,0,0,0-2.67.52v4.81Z"/><path class="cls-2" d="M294,81.85a67.6,67.6,0,0,1-4.26,9.39c-10,16.12-20.82,22.07-28.46,18.2a11.07,11.07,0,0,1-6.14-7.34h-8.31a16.93,16.93,0,0,0,12.69,15.19c9.85,2.65,19.34-.64,26.94-9.55,2.61-3.06,5.14-7.63,7.54-12.75V81.85Z"/><path class="cls-1" d="M309.32,61.09V56.28C302.74,59,297.88,72,294,81.85V95c6.12-13,11.43-29.61,15.37-33.9Z"/><path class="cls-1" d="M255.09,102.1c-1.27-5,.7-10.92,2.83-15.38H249.3a47.45,47.45,0,0,0-2.31,9,25.8,25.8,0,0,0-.21,6.43h8.31Z"/><path class="cls-2" d="M278.42,76.48V71.36H273.3V66.23h-5.13V61.1H263V56h8.27a22.17,22.17,0,0,0,1.84-3.3c2-4.77,2.62-9.39.91-12.07H252.78v5.12h-5.12v5.13h-5.13V55h0V66.23h5.13v5.12h5.12v5.13h5.13v5.13H263v5.11h-5.12c-2.13,4.46-4.1,10.37-2.83,15.38H273.3V97h5.12V91.85h5.13V86.73h0V76.48Z"/><polygon class="cls-1" points="309.32 81.6 309.32 81.6 309.32 81.59 309.32 81.6"/><path class="cls-2" d="M314,91l5.55,11.1H335l-5.42-10.85c-1,.21-2,.41-3.21.61C320.43,92.85,316.57,92.27,314,91Z"/><path class="cls-2" d="M309.32,81.6v2.55A8.42,8.42,0,0,0,314,91l-4.71-9.4Z"/><path class="cls-1" d="M362.06,66.21a5.12,5.12,0,1,0-5.12-5.12A5.13,5.13,0,0,0,362.06,66.21Z"/><path class="cls-2" d="M327.31,86.81l2.22,4.44a34.08,34.08,0,0,0,12-4.83V80.05A33.35,33.35,0,0,1,327.31,86.81Z"/><path class="cls-2" d="M335,40.6H319.58L312,55.76l-1.19,2.39-1.46,2.92h0l0,0h0C305.38,65.38,300.07,82,294,95v7.11h15.37V81.6h0c3.09,3.42,3.79,7.53,16.74,5.46.41-.06.83-.16,1.24-.25l-7.73-15.46Z"/><path class="cls-1" d="M326.07,87.06c-12.95,2.07-13.65-2-16.74-5.46h0L314,91c2.54,1.27,6.4,1.85,12.29.86,1.17-.2,2.21-.4,3.21-.61l-2.22-4.44C326.9,86.9,326.48,87,326.07,87.06Z"/><path class="cls-1" d="M214.45,71.2l.87-3.48-.87,3.48Z"/><path class="cls-2" d="M222.14,40.45l-6.77,27.07h0l-.05.2-.87,3.48s-3.23,1.54-6.14,10c-.86,2.49-2.14,6.65-3.92,11.21l2.37,9.5h15.38l15.38-61.51Z"/><path class="cls-2" d="M213.5,67.4l-6.74-26.95H191.39l11,44.12c.84-2,1.58-4,2.19-5.65C208,69.9,211.43,67.77,213.5,67.4Z"/><polygon class="cls-1" points="159.14 86.58 159.14 86.58 159.14 86.58 159.14 86.58"/><path class="cls-1" d="M169.15,83.66c.09,0,.15.13.24.18v-28H159.14V86.58S163,79.94,169.15,83.66Z"/><path class="cls-1" d="M162.8,105a29.84,29.84,0,0,0,1.87-3.07h-3.54A2.67,2.67,0,0,0,162.8,105Z"/><path class="cls-2" d="M161.13,102h3.54c1.84-3.4,4.11-9,2.19-13.43-.73-1.7-3.57-1.86-5.21-1.94h0a12.37,12.37,0,0,1-2.49,0h0V55.83h10.25v28c4.06,2.69,4,7.87,2.64,13.09a31.74,31.74,0,0,1-1.82,5h14.57V40.45H154v5.12h-5.12V50.7h-5.13V102h17.38Z"/><path class="cls-2" d="M128.38,120.18v-1.57h5.12v-5.13h0V110.4a4.86,4.86,0,0,0-3.41-4.3,55,55,0,0,0-11.94-2.78V95.57a40.92,40.92,0,0,1,11.94,3.3,14.79,14.79,0,0,1,3.41,2.2V40.45H118.12v71C118.24,113.27,119.45,118.24,128.38,120.18Z"/><path class="cls-2" d="M118,118.76a6.73,6.73,0,0,1-1.26-5.28H113v5.13h-5.13v5.12h-5.13v5.13h20.52v-5.13h.11A16,16,0,0,1,118,118.76Z"/><path class="cls-2" d="M118.12,111.41a7.23,7.23,0,0,1,0-.74,6.11,6.11,0,0,0-1.39,2.81h1.39Z"/><path class="cls-2" d="M169.39,83.84c-.09,0-.15-.13-.24-.18-6.11-3.72-10,2.92-10,2.92a16.69,16.69,0,0,1,2.49,0h7.76Z"/><path class="cls-2" d="M159.14,86.58h2.49A16.69,16.69,0,0,0,159.14,86.58Z"/><path class="cls-2" d="M161.63,86.58h-2.49A12.37,12.37,0,0,0,161.63,86.58Z"/><path class="cls-2" d="M187.39,107.54c-5.16,3.38-10.85,5.43-20.26,0a39.62,39.62,0,0,0,3.08-5.62h-5.54A29.84,29.84,0,0,1,162.8,105a2.67,2.67,0,0,1-1.67-3.07h-4a9,9,0,0,0,2.51,6.59S148.81,121.05,136.39,121a38.2,38.2,0,0,1-8-.81v3.55h-5c3.53,2,8.24,3,14.59,2.69,12.65-.65,25.54-14.49,25.54-14.49,9.16,6.55,17.55,6.38,25.53,2.26,7.21-3.73,12.13-13.42,15.37-21.73l-2-7.89C199,92.89,193.83,103.31,187.39,107.54Z"/><path class="cls-2" d="M215.32,67.72l.05-.2a3.36,3.36,0,0,0-1.87-.12l.95,3.8Z"/><path class="cls-1" d="M214.45,71.2h0l-.95-3.8c-2.07.37-5.55,2.5-8.89,11.52-.61,1.67-1.35,3.6-2.19,5.65l2,7.89c1.78-4.56,3.06-8.72,3.92-11.21C211.22,72.74,214.45,71.2,214.45,71.2Z"/><path class="cls-3" d="M215.37,67.52h0l-.05.2Z"/><path class="cls-1" d="M169.39,83.84v2.74h-7.74c1.64.08,4.48.24,5.21,1.94,1.92,4.42-.35,10-2.19,13.43h5.54a31.74,31.74,0,0,0,1.82-5C173.41,91.71,173.45,86.53,169.39,83.84Z"/><polygon class="cls-2" points="161.13 101.95 157.11 101.95 157.11 101.95 161.13 101.95 161.13 101.95"/><path class="cls-1" d="M128.38,120.18c-8.93-1.94-10.14-6.91-10.26-8.77v2.07h-1.39a6.73,6.73,0,0,0,1.26,5.28,16,16,0,0,0,5.37,5h5Z"/><path class="cls-1" d="M133.52,110.56h0v-9.47l0,0v9.33C133.5,110.46,133.52,110.51,133.52,110.56Z"/><path class="cls-1" d="M118.15,95.57v7.75a55,55,0,0,1,11.94,2.78,4.86,4.86,0,0,1,3.41,4.3v-9.33a14.79,14.79,0,0,0-3.41-2.2A40.92,40.92,0,0,0,118.15,95.57Z"/></g></g></svg>