<svg xmlns="http://www.w3.org/2000/svg" viewBox="0 0 434.85 155.91"><defs><style>.cls-1{fill:#fff;}</style></defs><g id="Layer_2" data-name="Layer 2"><g id="Layer_1-2" data-name="Layer 1"><rect class="cls-1" width="434.85" height="155.91"/><path d="M58.28,43.75v68.5H40.12V85.66H18.17v26.59H0V43.75H18.17V70.62H40.12V43.75Z"/><path d="M132.36,112.25H111.83L89.69,68.58v43.67H73.23V43.75H94.87l21.22,43.1V43.75h16.27Z"/><path d="M165.48,43.75v68.5H147.31V43.75Z"/><path d="M198.6,85.28V98H228v14.29H180.43V43.75h45.51V57.94H198.6V71.38h25.83v13.9Z"/><path d="M287.18,56.65,258.29,98.06h30.28v14.19H236.15V100l29.9-42H236.82V43.75h50.36Z"/><path d="M323.67,112.25H299.45V43.75h25.83q17.33,0,25.64,8.66T359.25,77q0,16.37-8.89,25.83T323.67,112.25Zm-6.05-13.53h5q10.23,0,14.2-5.35t4-15.84q0-11.18-3.88-15.66t-13.06-4.5h-6.24Z"/><path d="M426.42,103.83q-8.42,9.56-25.26,9.56T376.42,104q-7.91-9.37-7.9-25.55,0-16,8.8-26t25.45-10a37.06,37.06,0,0,1,14.71,2.7,24.53,24.53,0,0,1,10,7.52,32.8,32.8,0,0,1,5.54,10.93,47.48,47.48,0,0,1,1.8,13.48Q434.85,94.28,426.42,103.83Zm-24.59-4.64q6.9,0,10.64-4.87T416.21,78q0-11.27-3.46-16.27t-10.36-5q-15.13,0-15.14,21.38,0,11.46,3.6,16.28T401.83,99.19Z"/></g></g></svg>