<svg xmlns="http://www.w3.org/2000/svg" viewBox="0 0 111.12 155.91"><defs><style>.cls-1{fill:#fff;}.cls-2{fill:#0094c0;}.cls-3{fill:#1f1f1f;}.cls-4{fill:#f0532c;}.cls-5{fill:#f0522e;}</style></defs><g id="Layer_2" data-name="Layer 2"><g id="Layer_1-2" data-name="Layer 1"><rect class="cls-1" width="111.12" height="155.91"/><g id="Layer_2-2" data-name="Layer 2"><g id="Layer_1-2-2" data-name="Layer 1-2"><path class="cls-2" d="M87.6,119.08a13.31,13.31,0,1,1-13.31,13.31v0A13.33,13.33,0,0,1,87.6,119.08m0-10.19a23.51,23.51,0,1,0,23.5,23.51v0a23.5,23.5,0,0,0-23.5-23.5Z"/><rect class="cls-3" x="100.91" y="60.28" width="10.19" height="44.05"/><path class="cls-3" d="M0,60.27H10.17v2.42a24.57,24.57,0,0,1,4.9-2.56,16,16,0,0,1,5.69-1.07,13.51,13.51,0,0,1,11.8,6.51,15.28,15.28,0,0,1,13-6.51q14.88,0,14.88,18V85H50.2v-5.1c0-4.22-.52-7.2-1.54-9a5.66,5.66,0,0,0-5.2-2.69,6.65,6.65,0,0,0-6.13,3.16q-1.92,3.18-1.92,10.18V104.3H25.19V80q0-11.76-6.78-11.76a6.8,6.8,0,0,0-6.27,3.23q-2,3.23-2,10.13v22.75H0Z"/><path class="cls-3" d="M87.84,68.63a13.07,13.07,0,1,1-13,13.09v0A13.09,13.09,0,0,1,87.86,68.63m0-10.19A23.26,23.26,0,1,0,111.12,81.7h0A23.26,23.26,0,0,0,87.86,58.44Z"/><path class="cls-3" d="M37.16,119.33A13.07,13.07,0,1,1,24.09,132.4v0a13.07,13.07,0,0,1,13.07-13.06m0-10.2a23.26,23.26,0,1,0,23.26,23.26h0A23.26,23.26,0,0,0,37.16,109.11Z"/><rect class="cls-3" x="50.2" y="90.09" width="10.19" height="64.94"/><rect class="cls-3" x="50.2" y="23.46" width="10.19" height="29.93"/><rect class="cls-3" x="50.2" y="0.2" width="10.19" height="23.26"/><rect class="cls-3" x="43.66" y="6.74" width="23.26" height="10.19"/><circle class="cls-4" cx="87.84" cy="30.76" r="19.09"/><path class="cls-5" d="M87.84,15.86a14.9,14.9,0,1,1-14.9,14.9h0a14.9,14.9,0,0,1,14.9-14.9m0-8.36A23.26,23.26,0,1,0,111.1,30.76h0A23.26,23.26,0,0,0,87.84,7.5Z"/><rect class="cls-3" x="82.75" y="0.2" width="10.19" height="23.26" transform="translate(17.36 65.58) rotate(-45)"/><rect class="cls-3" x="76.21" y="6.73" width="23.26" height="10.19" transform="translate(17.37 65.58) rotate(-45)"/></g></g></g></g></svg>