<svg xmlns="http://www.w3.org/2000/svg" viewBox="0 0 445.77 155.91"><defs><style>.cls-1{fill:#fff;}.cls-2{fill:#231f20;}</style></defs><g id="Layer_2" data-name="Layer 2"><g id="Layer_1-2" data-name="Layer 1"><rect class="cls-1" width="445.77" height="155.91"/><path class="cls-2" d="M70.88,89.48A35.45,35.45,0,0,0,56.1,75.68c5.78,6.58,8.22,16,4.27,22.82S47.88,107.67,39.86,107a103.23,103.23,0,0,0-21.09.24,29.32,29.32,0,0,1-6.07,0,3.44,3.44,0,0,1-3.22-3,60.36,60.36,0,0,1-.61-12.88C7,92.7-.15,98.18.51,111.25a32,32,0,0,0,9,18.46,40.86,40.86,0,0,0,39,10.76,36.09,36.09,0,0,0,26.57-30.56A33.8,33.8,0,0,0,70.88,89.48Z"/><path class="cls-2" d="M4.46,66.41A35.56,35.56,0,0,0,19.23,80.19C13.48,73.63,11,64.17,15,57.37s12.5-9.15,20.53-8.51a102.94,102.94,0,0,0,21.06-.27,31.08,31.08,0,0,1,6.1,0,3.46,3.46,0,0,1,3.22,3,62.38,62.38,0,0,1,.61,12.88c1.9-1.34,9-6.81,8.34-19.88a32,32,0,0,0-9-18.41,40.71,40.71,0,0,0-39-10.75A36.06,36.06,0,0,0,.21,45.88,33.67,33.67,0,0,0,4.46,66.41Z"/><path class="cls-2" d="M144.54,96.89V87c0-1.6-.84-2.36-2.51-2.36h-9.51a12.82,12.82,0,0,1-10.27-3.58,15.2,15.2,0,0,1-3-10.12V56.58c0-9,4.79-13.47,14.45-13.47H147.2c9.59,0,14.46,4.49,14.46,13.47v8.36H144.31V59.09a2.21,2.21,0,0,0-2-2.43H139a2.13,2.13,0,0,0-2.44,1.78,2.43,2.43,0,0,0,0,.66V69.43c0,1.6.76,2.36,2.44,2.36h9.28a13.87,13.87,0,0,1,10.42,3.35,14,14,0,0,1,3.12,10V99.25c0,9.06-4.79,13.54-14.38,13.54H134c-9.74.16-14.76-4.33-14.76-13.54V90.88H136.7v5.86a2.22,2.22,0,0,0,2,2.45,2.73,2.73,0,0,0,.57,0H142a2.21,2.21,0,0,0,2.49-1.88A1.88,1.88,0,0,0,144.54,96.89Z"/><path class="cls-2" d="M205.93,43.11V56.65H193.68V113H176.34V56.65h-12.1V43.11Z"/><path class="cls-2" d="M235.67,43.11H253V99.25c0,9.06-4.87,13.54-14.53,13.54H223.81c-9.66,0-14.53-4.48-14.53-13.54V43h17.34V96.74a2.22,2.22,0,0,0,1.95,2.44h4.75a2.13,2.13,0,0,0,2.43-1.78,2.43,2.43,0,0,0,0-.66Z"/><path class="cls-2" d="M260.85,43.11H290c9.74,0,14.53,4.49,14.53,13.47V99.25c0,9.06-4.79,13.54-14.53,13.54H260.85ZM287.25,98V58c0-1.53-.84-2.36-2.51-2.36h-6.62v44.8h6.62C286.56,100.39,287.25,99.63,287.25,98Z"/><path class="cls-2" d="M311.06,43.11H328.4V113H311.06Z"/><path class="cls-2" d="M349.4,43.11h14.68c9.66,0,14.53,4.49,14.53,13.47V99.25c0,9.06-4.87,13.54-14.53,13.54H349.4c-9.66,0-14.53-4.48-14.53-13.54V56.58C334.87,47.6,339.81,43.11,349.4,43.11Zm11.87,53.78v-38a2.15,2.15,0,0,0-1.78-2.44,2.43,2.43,0,0,0-.66,0H355a2.22,2.22,0,0,0-2.44,2,3.84,3.84,0,0,0,0,.48v38a2.21,2.21,0,0,0,2,2.37,1.79,1.79,0,0,0,.4,0h4.18a2.13,2.13,0,0,0,2.07-2.19C361.28,97,361.27,97,361.27,96.89Z"/><path class="cls-2" d="M445.63,56.58V65a13.44,13.44,0,0,1-4.72,12.32,6.77,6.77,0,0,1,3.73,4,20.87,20.87,0,0,1,1,7.61V99.25c0,9.06-4.79,13.54-14.53,13.54H417.86c-9.66,0-14.53-4.48-14.53-13.54V88.53c0-5.94,1.53-9.66,4.64-11.19-3.11-1.9-4.64-6-4.64-12.32V56.58c0-9,4.87-13.47,14.53-13.47H431.1C440.84,43.11,445.63,47.6,445.63,56.58ZM429.12,69.43V58.86a2.21,2.21,0,0,0-1.95-2.44,3.84,3.84,0,0,0-.48,0h-4.41a2.21,2.21,0,0,0-2.44,2,1.93,1.93,0,0,0,0,.48V69.43a2.14,2.14,0,0,0,1.86,2.37,2.25,2.25,0,0,0,.58,0h4.41A2.12,2.12,0,0,0,429.11,70,2.17,2.17,0,0,0,429.12,69.43Zm0,27.69V85.64a2.21,2.21,0,0,0-1.95-2.44,1.93,1.93,0,0,0-.48,0h-4.41a2.21,2.21,0,0,0-2.44,2,2,2,0,0,0,0,.49V97.12a2.22,2.22,0,0,0,2,2.44h4.9a2.2,2.2,0,0,0,2.43-2A2,2,0,0,0,429.12,97.12Z"/></g></g></svg>