<svg xmlns="http://www.w3.org/2000/svg" viewBox="0 0 435.76 155.91"><defs><style>.cls-1{fill:#fff;}.cls-2{fill:none;}.cls-3{fill:#231f20;}.cls-4{fill:#eb0d8c;}</style></defs><g id="Layer_2" data-name="Layer 2"><g id="Layer_1-2" data-name="Layer 1"><rect class="cls-1" width="435.76" height="155.91"/><g id="Layer_2-2" data-name="Layer 2"><g id="Layer_4" data-name="Layer 4"><path class="cls-2" d="M72.63,46.84H61.68a20.3,20.3,0,0,0,8,1.33c5.61-.36,9.34-4.75,9.2-11.09-.13-6.16-2.83-8.59-9.29-8.92-4-.2-5.89.88-6.75,1.76h9.77Z"/><path class="cls-3" d="M25.87,29.93H13.37V46.84H36.25v64.23H49.76V46.84h.64a75.49,75.49,0,0,1-7.55-6.75A48.52,48.52,0,0,0,25.87,29.93Z"/><path class="cls-3" d="M70.39,21.5C56,21.64,54,29.93,54,29.93h8.8c.88-.88,2.74-2,6.75-1.76,6.49.32,9.19,2.78,9.32,8.94.14,6.34-3.59,10.73-9.2,11.09a20.11,20.11,0,0,1-8-1.32H50.4c4.47,3.43,9.88,6.48,15.7,7C81.37,55.3,86,45.56,86,37.2,86,26.55,78.3,21.43,70.39,21.5Z"/><path class="cls-3" d="M19.07,21.27C6.07,20.86-.08,29.66,0,38c.07,8,3.42,12.32,10,14.87,7.54,3,12.32-1.29,12.32-1.29S6.73,50.91,7.15,38.45c.26-7.5,4.11-10.43,11-10.07a29.42,29.42,0,0,1,7.7,1.55h12C32.69,25.73,25.89,21.51,19.07,21.27Z"/><path class="cls-3" d="M62.86,29.93h-25a74.11,74.11,0,0,1,5.65,5.12c6.41,5.76,12.63,9.82,18.19,11.79h11V29.93Z"/><path class="cls-2" d="M43.49,35.05a76.21,76.21,0,0,0-5.66-5.12h-12a48.52,48.52,0,0,1,17,10.16,75.49,75.49,0,0,0,7.55,6.75H61.68C56.11,44.87,49.9,40.81,43.49,35.05Z"/><path class="cls-2" d="M413.35,70.54h-9V91.89c4.31,0,5.33,2.64,7.24,5.68h1.76Z"/><path class="cls-3" d="M417.47,108C408,105.4,408.85,98,404.33,97.57h0v-27h9v27h-1.76a16.55,16.55,0,0,0,7,6.6,19.12,19.12,0,0,0,8.27,2.23V57H399.81V61.5h-4.5V66h-4.52v45.1h36.07v-1.91A26.67,26.67,0,0,1,417.47,108Z"/><path class="cls-3" d="M404.33,91.89v5.68h7.24C409.66,94.49,408.64,91.89,404.33,91.89Z"/><path class="cls-3" d="M426.89,106.4v2.79c7.49-.65,8.87-5.83,8.87-5.83A12.55,12.55,0,0,1,426.89,106.4Z"/><path class="cls-2" d="M418.62,104.17a16.55,16.55,0,0,1-7-6.6h-7.24c4.52.4,3.67,7.82,13.14,10.47a26.84,26.84,0,0,0,9.42,1.15V106.4A19.2,19.2,0,0,1,418.62,104.17Z"/><path class="cls-3" d="M381.75,85.38s3.52,6.5,9.6,5.64v5s-6.83-.88-9.85-5.33Z"/><rect class="cls-3" x="103.95" y="33.32" width="13.53" height="13.53"/><polygon class="cls-3" points="325.27 46.85 311.75 46.85 318.52 33.32 332.04 33.32 325.27 46.85"/><path class="cls-2" d="M79.88,96.42a4.51,4.51,0,1,0-6.52-.57C77.64,92.48,79.79,96.26,79.88,96.42Z"/><path class="cls-3" d="M58.85,57V70.54H81.39v4.51H58.85v29.48c5.72-1.34,9.25-4,13.89-8.17a6.66,6.66,0,0,1,.62-.51,4.5,4.5,0,1,1,6.52.57h0a42.13,42.13,0,0,1-12.44,9.32,41,41,0,0,1-8.59,2.63v2.71H94.92V57Z"/><path class="cls-3" d="M49.76,105.59V109a36.46,36.46,0,0,0,9.09-.66v-3.84A47.1,47.1,0,0,1,49.76,105.59Z"/><path class="cls-3" d="M76.89,97.57a4.47,4.47,0,0,0,3-1.15c-.09-.16-2.24-3.94-6.52-.57A4.5,4.5,0,0,0,76.89,97.57Z"/><path class="cls-2" d="M79.89,96.43h0a4.48,4.48,0,0,1-6.32-.33l-.2-.24a6.66,6.66,0,0,0-.62.51c-4.64,4.21-8.17,6.83-13.89,8.17v3.83a41,41,0,0,0,8.59-2.63A41.93,41.93,0,0,0,79.89,96.43Z"/><polygon class="cls-2" points="272.14 75.02 272.14 75.03 272.16 75 272.15 75.01 272.14 75.02"/><path class="cls-2" d="M315.43,78.27l-.17-.18Z"/><path class="cls-2" d="M318.54,70.54a4.51,4.51,0,0,0-4.5,4.51,4.46,4.46,0,0,0,1,2.83c2.47-2.78,4.63-1.87,7.08-.15a4.41,4.41,0,0,0,.88-2.64,4.52,4.52,0,0,0-4.48-4.55Z"/><path class="cls-3" d="M315.43,78.27l-.17-.18-.21-.23h0A4.42,4.42,0,0,1,314,75a4.51,4.51,0,0,1,9,0,4.41,4.41,0,0,1-.88,2.64c3.08,2.16,6.65,5.62,12,4.72a23.17,23.17,0,0,0,2.47-.55V57H300.52V111.1H336.6V97.57H314v-4.5h22.55V86.65c-.49.13-1,.24-1.52.35C326.13,88.73,317.3,80.22,315.43,78.27Z"/><path class="cls-3" d="M345.66,74.72c-2.18,3.13-4.12,5.76-9.07,7.15v4.78c7.33-1.83,9.11-5.47,9.11-5.47h0V74.71A0,0,0,0,0,345.66,74.72Z"/><path class="cls-3" d="M345.7,74.71v6.46C345.7,81.1,346,74.77,345.7,74.71Z"/><path class="cls-3" d="M315.07,77.85a1.55,1.55,0,0,0,.19.24l.17.18a4.48,4.48,0,0,0,6.34-.12,4.11,4.11,0,0,0,.38-.45C319.7,76,317.54,75.07,315.07,77.85Z"/><path class="cls-3" d="M315.05,77.86l.21.23a1.55,1.55,0,0,1-.19-.24Z"/><path class="cls-2" d="M334.12,82.42c-5.27.88-8.89-2.55-12-4.72a4.48,4.48,0,0,1-6.28.94,5.07,5.07,0,0,1-.44-.37c1.87,1.94,10.7,10.46,19.64,8.73.52-.11,1-.22,1.52-.35V81.87A22.64,22.64,0,0,1,334.12,82.42Z"/><path class="cls-2" d="M368.25,78.46V77.37C368.23,77.72,368.24,78.09,368.25,78.46Z"/><path class="cls-3" d="M367.92,58.4a5.59,5.59,0,0,0-4-1.39H363a22.8,22.8,0,0,0-4.5.63c.23-.29.48-.57.73-.83V33.34H345.7V74.7c.3,0,0,6.34,0,6.45v29.92h13.53V70.54h7.25C368.4,67.09,370.81,61.74,367.92,58.4Z"/><path class="cls-3" d="M363,57h10.56a5.53,5.53,0,0,0-.72-.88c-6.15-6-11.69-1.35-13.6.67V57Z"/><path class="cls-3" d="M368.25,77.37V70.54h-1.76c-.35.63-.68,1.2-1,1.68-3,5.19,1.6,8.63,2.74,9.37V78.46A10,10,0,0,1,368.25,77.37Z"/><path class="cls-2" d="M368.25,77.37a5.92,5.92,0,0,1,.51-2.69c2.38-3.67,7.75-13,4.79-17.67h-9.63a5.56,5.56,0,0,1,4,1.39c2.89,3.32.48,8.69-1.44,12.14h1.76Z"/><path class="cls-3" d="M373.55,57c3,4.67-2.41,14-4.79,17.67a5.92,5.92,0,0,0-.51,2.69V111.1h13.52V57Z"/><path class="cls-3" d="M359.23,56.81c-.25.26-.5.54-.73.83A22.8,22.8,0,0,1,363,57h-3.77Z"/><path class="cls-2" d="M36.24,105.08V86.54C32.42,94.46,29.77,103.45,36.24,105.08Z"/><path class="cls-3" d="M36.24,86.54v-11c-3,7.5-9.52,18.22-8.64,25s7.18,7.92,8.64,8.09v-3.51C29.77,103.45,32.42,94.46,36.24,86.54Z"/><path class="cls-3" d="M36.55,108.87v-.25h-.1A.32.32,0,0,0,36.55,108.87Z"/><path class="cls-3" d="M94.91,104.86v6.29c3,.37,6.07.66,9,1.07v-6.86A58.11,58.11,0,0,0,94.91,104.86Z"/><path class="cls-3" d="M117.48,110.21v8.34S122.05,114.26,117.48,110.21Z"/><path class="cls-3" d="M217.89,79.54h-1.64c-2.39,6.1-9.9,8-14.49,6.38l-1.37,5.45a16.47,16.47,0,0,0,17.5-7.92Z"/><path class="cls-2" d="M231.39,70.54V75h4c1.15-1.45,2.33-3,3.29-4.51Z"/><path class="cls-2" d="M238.76,55.21c-2.58-.81-7-.69-8.51,1.76h10.87A4.18,4.18,0,0,0,238.76,55.21Z"/><path class="cls-3" d="M247.94,57c.54,3.22-.25,7.1-1.92,11.33-.32.74-.69,1.48-1.08,2.2h4.53V57Z"/><path class="cls-3" d="M238.76,55.21A4.18,4.18,0,0,1,241.12,57h6.82c-.62-3.72-3-6.53-7.92-7.92S228.46,50.17,225.87,57h4.35C231.76,54.52,236.18,54.4,238.76,55.21Z"/><path class="cls-3" d="M235.42,75h.52v4.51h3a104.12,104.12,0,0,0,6-9H238.7C237.74,72,236.56,73.58,235.42,75Z"/><path class="cls-2" d="M247.94,57h-6.82c1.5,2.36,1,6.43-.8,10.62a19.66,19.66,0,0,1-1.62,2.91h6.24c.39-.72.76-1.46,1.08-2.2C247.69,64.09,248.48,60.21,247.94,57Z"/><path class="cls-2" d="M231.39,93.07h-2a44.88,44.88,0,0,0-2.48,4.5h4.5Z"/><path class="cls-3" d="M217.31,105.44a41.6,41.6,0,0,1,2-7.91h-6V111.1h3.74A22.84,22.84,0,0,1,217.31,105.44Z"/><path class="cls-3" d="M229.4,93.07h-2.49V88.56H223.8a41.54,41.54,0,0,0-4.46,9h7.58A47,47,0,0,1,229.4,93.07Z"/><polygon class="cls-2" points="272.14 75.02 272.14 75.03 272.16 75.01 272.15 75.01 272.14 75.02"/><path class="cls-3" d="M272.14,70.79V33.32H258.66v60C262.08,84.62,266.35,73.18,272.14,70.79Z"/><path class="cls-3" d="M272.14,75h0l1.29-2.57,1.07-2.12a5.57,5.57,0,0,0-2.35.46V75Z"/><path class="cls-3" d="M258.66,93.29a60.07,60.07,0,0,1-3.74,8.26c-8.8,14.18-18.32,19.41-25,16a9.74,9.74,0,0,1-5.41-6.46h-7.31a14.91,14.91,0,0,0,11.17,13.37c8.66,2.33,17-.57,23.7-8.41a52,52,0,0,0,6.63-11.21Z"/><path class="cls-2" d="M272.14,75V70.79c-5.79,2.39-10.06,13.83-13.48,22.5v11.57C264.05,93.42,268.72,78.8,272.19,75Z"/><path class="cls-2" d="M224.43,111.1c-1.12-4.4.62-9.61,2.49-13.53h-7.58a41.7,41.7,0,0,0-2,7.92,22.81,22.81,0,0,0-.18,5.66h7.31Z"/><path class="cls-3" d="M245,88.56v-4.5h-4.51V79.54h-4.51V75h-4.55V70.54h7.28a19.11,19.11,0,0,0,1.61-2.9c1.76-4.2,2.31-8.26.81-10.62H222.4v4.5h-4.51V66h-4.51v3.62h0v9.88h4.51v4.51h4.51v4.51h4.51v4.51h4.48v4.5h-4.5c-1.88,3.92-3.61,9.12-2.49,13.53h16v-4.48H245v-4.54h4.51v-4.5h0v-9Z"/><polygon class="cls-2" points="272.14 93.07 272.14 93.07 272.14 93.06 272.14 93.07"/><path class="cls-3" d="M276.26,101.34l4.88,9.76h13.6L290,101.56c-.88.18-1.76.36-2.83.53C281.92,103,278.52,102.45,276.26,101.34Z"/><path class="cls-3" d="M272.14,93.07v2.24a7.42,7.42,0,0,0,4.12,6l-4.14-8.27Z"/><path class="cls-2" d="M318.54,79.53A4.51,4.51,0,1,0,314,75h0A4.52,4.52,0,0,0,318.54,79.53Z"/><path class="cls-3" d="M288,97.65l1.95,3.91a30.09,30.09,0,0,0,10.56-4.25V91.7A29.37,29.37,0,0,1,288,97.65Z"/><path class="cls-3" d="M294.74,57H281.17L274.5,70.33l-1.05,2.1L272.17,75h0c-3.49,3.8-8.17,18.42-13.51,29.86v6.25h13.53v-18h0c2.71,3,3.33,6.62,14.72,4.8.36-.05.73-.14,1.1-.22l-6.81-13.6Z"/><path class="cls-2" d="M286.88,97.87c-11.39,1.82-12-1.76-14.73-4.8h0l4.11,8.27c2.23,1.11,5.63,1.62,10.81.75,1-.17,1.95-.35,2.83-.53l-2-3.91C287.61,97.73,287.24,97.82,286.88,97.87Z"/><path class="cls-2" d="M188.68,83.92l.76-3.07Z"/><path class="cls-3" d="M195.44,56.86l-6,23.82h0l0,.17-.76,3.07s-2.85,1.35-5.41,8.79c-.75,2.19-1.88,5.85-3.45,9.87l2.09,8.35h13.53L209,56.82Z"/><path class="cls-3" d="M187.84,80.57l-5.93-23.71H168.39l9.67,38.82c.74-1.76,1.39-3.52,1.93-5C183,82.77,186,80.9,187.84,80.57Z"/><path class="cls-2" d="M148.82,94.88c.08,0,.13.11.21.16V70.4h-9V97.45S143.41,91.61,148.82,94.88Z"/><path class="cls-2" d="M143.23,113.65a24.64,24.64,0,0,0,1.65-2.7h-3.12A2.35,2.35,0,0,0,143.23,113.65Z"/><path class="cls-3" d="M141.76,111h3.12c1.62-3,3.61-7.91,1.93-11.81-.65-1.5-3.15-1.64-4.59-1.71h0a10,10,0,0,1-2.19,0h0V70.39h9V95c3.57,2.36,3.52,6.92,2.32,11.51a27.55,27.55,0,0,1-1.6,4.4h12.82V56.86h-27.1v4.51H131v4.51h-4.52V111Z"/><path class="cls-3" d="M113,127v-1.38h4.5v-4.52h0V118.4a4.27,4.27,0,0,0-3-3.78,48.4,48.4,0,0,0-10.5-2.44v-6.82a36.11,36.11,0,0,1,10.5,2.9,12.64,12.64,0,0,1,3,1.94V56.86H103.92v62.47C104,120.93,105.09,125.3,113,127Z"/><path class="cls-3" d="M103.82,125.76a5.9,5.9,0,0,1-1.11-4.65H99.42v4.52H94.91v4.5H90.39v4.52h18.06v-4.52h.09A14,14,0,0,1,103.82,125.76Z"/><path class="cls-3" d="M103.92,119.29c0-.21,0-.43,0-.65a5.53,5.53,0,0,0-1.22,2.47h1.22Z"/><path class="cls-3" d="M149,95c-.08,0-.13-.12-.21-.16-5.38-3.27-8.8,2.57-8.8,2.57a13.34,13.34,0,0,1,2.19,0H149Z"/><path class="cls-3" d="M140,97.45h2.19A13.34,13.34,0,0,0,140,97.45Z"/><path class="cls-3" d="M142.2,97.45H140A11.45,11.45,0,0,0,142.2,97.45Z"/><path class="cls-3" d="M164.87,115.89c-4.54,3-9.55,4.78-17.83,0a34.43,34.43,0,0,0,2.71-5h-4.87a24.18,24.18,0,0,1-1.65,2.71,2.35,2.35,0,0,1-1.47-2.7h-3.52a7.94,7.94,0,0,0,2.21,5.8s-9.53,11-20.45,11a33.91,33.91,0,0,1-7-.71v3.12h-4.4c3.11,1.76,7.25,2.64,12.84,2.37,11.13-.57,22.47-12.75,22.47-12.75,8.06,5.76,15.44,5.61,22.46,2,6.34-3.28,10.67-11.81,13.52-19.12l-1.76-6.94C175.08,103,170.53,112.17,164.87,115.89Z"/><path class="cls-3" d="M189.44,80.85l0-.17a3,3,0,0,0-1.64-.11l.84,3.35Z"/><path class="cls-2" d="M188.68,83.92h0l-.84-3.35C186,80.9,183,82.77,180,90.71c-.54,1.47-1.19,3.17-1.93,5l1.76,6.94c1.57-4,2.69-7.67,3.45-9.86C185.83,85.27,188.68,83.92,188.68,83.92Z"/><path class="cls-4" d="M189.48,80.68h0l0,.17Z"/><path class="cls-2" d="M149,95v2.41h-6.81c1.44.07,3.94.21,4.59,1.7,1.68,3.89-.31,8.8-1.93,11.82h4.87a27.55,27.55,0,0,0,1.6-4.4C152.57,102,152.6,97.4,149,95Z"/><polygon class="cls-3" points="141.76 110.97 138.23 110.97 138.23 110.97 141.76 110.97 141.76 110.97"/><path class="cls-2" d="M113,127c-7.86-1.71-8.92-6.08-9-7.72v1.82H102.7a5.9,5.9,0,0,0,1.11,4.65,14.1,14.1,0,0,0,4.72,4.4h4.4Z"/><path class="cls-2" d="M117.47,118.55h0v-8.34h0v8.21S117.47,118.5,117.47,118.55Z"/><path class="cls-2" d="M104,105.36v6.82a48.4,48.4,0,0,1,10.5,2.44,4.27,4.27,0,0,1,3,3.78v-8.2a12.64,12.64,0,0,0-3-1.94A36.11,36.11,0,0,0,104,105.36Z"/></g></g></g></g></svg>