<svg xmlns="http://www.w3.org/2000/svg" viewBox="0 0 340.81 155.91"><defs><style>.cls-1{fill:#fff;}.cls-2{fill:#3b47ff;}</style></defs><g id="Layer_2" data-name="Layer 2"><g id="Layer_1-2" data-name="Layer 1"><rect class="cls-1" width="340.81" height="155.91"/><g id="Layer_2-2" data-name="Layer 2"><g id="Layer_3" data-name="Layer 3"><path d="M149.12,114.26l4.38-11.34a40,40,0,0,0,16.76,3.9c7.59,0,11.13-3,11.13-7,0-10.29-30.18-6.26-30.18-27.82,0-12.17,11.54-18.22,22.67-18.22a34.71,34.71,0,0,1,19.82,4.8l-4.24,11.2a32.76,32.76,0,0,0-15-3.41c-4.94,0-8.35,2.43-8.35,5.91,0,8.41,30.74,7.51,30.74,27.05,0,13.92-13.28,20-26.43,20A41.79,41.79,0,0,1,149.12,114.26Z"/><path d="M206.85,54.79h15.23V118.5H206.85Z"/><path d="M237,54.79h41.74v12H252.34V80.67h24.48V91.86H252.27v14.33h28.51V118.5H237Z"/><path d="M305.33,66.75H285.16v-12h55.65v12H320.64V118.5H305.33Zm7.66-15-17.25-8.69L301,33.58l12,5.35,11.89-5.35,5.35,9.53Z"/><rect class="cls-2" x="34.78" y="14.17" width="23.3" height="23.3"/><rect y="48.95" width="23.3" height="23.3"/><rect class="cls-2" x="104.26" y="83.66" width="23.3" height="23.3"/><rect x="69.48" y="118.43" width="23.3" height="23.3"/><rect y="118.43" width="23.3" height="23.3"/><rect class="cls-2" x="40.55" y="25.79" width="11.62" height="26.01"/><rect class="cls-2" x="40.55" y="69.33" width="11.62" height="26.01"/><rect class="cls-2" x="40.55" y="89.5" width="31.79" height="11.62"/><rect class="cls-2" x="89.86" y="89.5" width="26.01" height="11.62"/><polygon points="86.94 130.05 75.33 130.05 75.33 66.41 11.62 66.41 11.62 54.72 86.94 54.72 86.94 130.05"/><polygon class="cls-2" points="26.22 115.51 26.22 118.43 26.22 123.72 48.83 101.11 40.55 92.91 17.95 115.51 26.22 115.51"/></g></g></g></g></svg>