<svg xmlns="http://www.w3.org/2000/svg" viewBox="0 0 351.22 155.91"><defs><style>.cls-1{fill:#fff;}.cls-2{fill:#020202;}.cls-3{fill:#231f20;}</style></defs><g id="Layer_2" data-name="Layer 2"><g id="Layer_1-2" data-name="Layer 1"><rect class="cls-1" width="351.22" height="155.91"/><g id="Layer_2-2" data-name="Layer 2"><g id="uhlisko"><rect class="cls-2" x="115.58" y="98.42" width="43.35" height="14.45"/><polygon class="cls-2" points="262.92 107.32 263.16 83.86 287.96 42.77 302.4 42.79 262.92 107.32"/><polygon class="cls-2" points="262.92 48.32 263.16 71.77 287.96 112.86 302.4 112.84 262.92 48.32"/><rect class="cls-2" x="259.99" y="42.77" width="14.45" height="70.09"/><path class="cls-2" d="M225.13,85.11c-1.81,0-9.68-.34-15.53-6-2.71-2.65-5.94-7.45-5.94-15.35s3.27-12.64,6-15.28c6-5.61,14-5.7,15.71-5.66h20.06V57.23H224.88c-.83,0-3.75.25-5.3,1.8-.36.36-1.47,1.44-1.47,4.77,0,3.84,1.42,5.11,2.81,5.85a10.27,10.27,0,0,0,4.21,1.06l14,6v8.41h-14Z"/><path class="cls-2" d="M225,113H204.43V98.53H225c.83,0,3.73-.25,5.29-1.8.37-.35,1.47-1.43,1.47-4.76,0-3.84-1.42-5.11-2.82-5.85a10.23,10.23,0,0,0-4.21-1.06l-14-6.86V70.62h13.88c1.42,0,9.64.15,15.67,6,2.71,2.64,5.94,7.45,5.94,15.35s-3.26,12.64-6,15.26C234.67,112.54,227.36,113,225,113Z"/><rect class="cls-2" x="43.35" y="42.79" width="14.45" height="35.04"/><rect class="cls-2" x="115.58" y="42.79" width="14.45" height="70.07"/><rect class="cls-2" x="173.37" y="42.77" width="14.45" height="70.09"/><path class="cls-3" d="M101.12,42.79H86.68v35H57.78v35H72.23V99.32a10.32,10.32,0,0,1,1.06-4.22c.74-1.39,2.51-2.81,6.32-2.81,3.32,0,4.9,1.11,5.25,1.48,1.52,1.55,1.81,4.51,1.81,5.29v13.8h14.44Z"/><path class="cls-2" d="M351.16,64.22c.06-1.71,0-9.75-5.7-15.7-2.6-2.7-7.36-6-15.26-6s-12.64,3.23-15.35,5.94c-5.9,6-6.06,14.27-6.05,15.67V78.05h0V91.59c-.05,1.72,0,9.75,5.71,15.7,2.6,2.71,7.35,6,15.26,6s12.64-3.23,15.35-5.94c5.9-6,6.1-14.24,6.1-15.63V77.86h0ZM336.77,77.67H323.28V64a10.23,10.23,0,0,1,1.06-4.21c.74-1.39,2-2.82,5.86-2.82,3.32,0,4.4,1.1,4.76,1.47,1.51,1.56,1.8,4.52,1.8,5.3Z"/><path class="cls-2" d="M14.45,90.73v-4.3H43.34v-4.3H14.45v-4.3h0v-35H0V91.68c0,1.72.05,9.75,5.71,15.7,2.61,2.71,7.36,6,15.27,6,7.5,0,13.12-2.83,15.92-5.42h-16c-.13-.14-.29-.26-.41-.4a19.63,19.63,0,0,1-2.94-3.91H40.24a22.19,22.19,0,0,0,1.91-4.32H15.66a24.37,24.37,0,0,1-1-4.3H43.12a22.14,22.14,0,0,0,.22-3.15V90.73Z"/></g></g></g></g></svg>