<svg xmlns="http://www.w3.org/2000/svg" viewBox="0 0 400.26 155.91"><defs><style>.cls-1{fill:#fff;}.cls-2{fill:#2e8959;}</style></defs><g id="Layer_2" data-name="Layer 2"><g id="Layer_1-2" data-name="Layer 1"><rect class="cls-1" width="400.26" height="155.91"/><g id="Layer_2-2" data-name="Layer 2"><g id="Layer_1-2-2" data-name="Layer 1-2"><path class="cls-2" d="M162.22,51.51l1.3,11-.54-.88a24.85,24.85,0,0,1,8.49-9.23,24.23,24.23,0,0,1,20.26-2,14.9,14.9,0,0,1,5.83,4,12.32,12.32,0,0,1,3,6.48l-.51.36a24,24,0,0,1,8.5-9,21.44,21.44,0,0,1,11.32-3.2,17.4,17.4,0,0,1,12.53,4.5,15.79,15.79,0,0,1,4.87,11.78v41.52H223.12V71a13.9,13.9,0,0,0-1.67-6.59,6.56,6.56,0,0,0-5.66-2.83,11.75,11.75,0,0,0-7.95,2.83,19.52,19.52,0,0,0-5.18,7.44,26.67,26.67,0,0,0-2,9.54v25.47H186.07V71a12.94,12.94,0,0,0-1.81-6.59,6.91,6.91,0,0,0-5.88-2.83,11.41,11.41,0,0,0-7.81,2.83,18.09,18.09,0,0,0-5.07,7.44,26.86,26.86,0,0,0-1.73,9.68V107H149.4V51.51Z"/><path class="cls-2" d="M265.52,106.87a31.9,31.9,0,0,1-11.72-2.1,24,24,0,0,1-9.31-6.28l6-8.18a29.64,29.64,0,0,0,7.13,4.9,16,16,0,0,0,6.73,1.67,16.5,16.5,0,0,0,4.42-.57,6.7,6.7,0,0,0,3-1.87A4.7,4.7,0,0,0,273,91.1a5,5,0,0,0-1.73-4.1,14.28,14.28,0,0,0-4.55-2.35l-5.89-2a21,21,0,0,1-10.5-6.4,15.06,15.06,0,0,1-3.48-9.87,17.42,17.42,0,0,1,9-14.55,22.56,22.56,0,0,1,11.32-2.49,36.45,36.45,0,0,1,10.64,1.41,26.83,26.83,0,0,1,8.49,4.48l-5.66,8.71a19.17,19.17,0,0,0-11.15-4.87,9,9,0,0,0-4.1.66,8.37,8.37,0,0,0-2.83,2,4.05,4.05,0,0,0-1.16,2.83,4.72,4.72,0,0,0,2,4.16,14.75,14.75,0,0,0,4.95,2.43c2,.6,3.93,1.25,5.83,1.93a29.85,29.85,0,0,1,7,3.19,15.53,15.53,0,0,1,4.81,4.87,13.51,13.51,0,0,1,1.78,7.19A17.78,17.78,0,0,1,278,104.23,25.46,25.46,0,0,1,265.52,106.87Z"/><path class="cls-2" d="M399.92,100.84a30.06,30.06,0,0,1-8.89,4.55,32.52,32.52,0,0,1-10.44,1.73,34,34,0,0,1-15.82-3.51,25.48,25.48,0,0,1-10.59-9.88,29.32,29.32,0,0,1-3.7-15.19,26.91,26.91,0,0,1,14.71-25,29.56,29.56,0,0,1,13.9-3.48A36.68,36.68,0,0,1,391.29,52a28.07,28.07,0,0,1,9,5.07l-6.94,9.34a27.65,27.65,0,0,0-5.49-3.14,18.56,18.56,0,0,0-7.5-1.48A14.2,14.2,0,0,0,372.58,64,16.13,16.13,0,0,0,366.92,70a16.91,16.91,0,0,0-2.12,8.49A16.58,16.58,0,0,0,367,86.94,16,16,0,0,0,372.92,93a17.06,17.06,0,0,0,8.77,2.26,17.34,17.34,0,0,0,10.9-3.59Z"/><rect class="cls-2" x="311.84" y="51.51" width="14.35" height="54.2"/><polygon class="cls-2" points="334.74 39.08 319 14.21 303.3 39.08 334.74 39.08"/><polygon class="cls-2" points="342.61 51.51 295.43 51.51 287.56 63.93 319 63.93 350.48 63.93 342.61 51.51"/><path class="cls-2" d="M39.11,117A39,39,0,0,1,28.92,40.27l2.32,7.9A31.13,31.13,0,1,0,61,99.9l5.66,5.66A38.78,38.78,0,0,1,39.11,117Z"/><path class="cls-2" d="M63.87,141.73a39,39,0,0,1-37.7-28.89l7.9-2.07a31.13,31.13,0,1,0,51.73-30l5.66-5.66a39,39,0,0,1-27.59,66.59Z"/><path class="cls-2" d="M98.74,115.67l-2.07-7.73A31.13,31.13,0,1,0,66.7,56L61,50.38a39,39,0,0,1,55.11-.05l0,.05a39.06,39.06,0,0,1-17.46,65.29Z"/><path class="cls-2" d="M36.28,80.8A39,39,0,0,1,91.43,25.58l0,0A39.59,39.59,0,0,1,101.57,43.1l-7.76,2.07a31.13,31.13,0,1,0-51.87,30Z"/><polygon class="cls-2" points="88.61 93.96 80.17 93.96 80.17 69.22 88.61 69.22 88.61 93.96"/><rect class="cls-2" x="80.14" y="69.22" width="24.76" height="8.77"/><rect class="cls-2" x="47.85" y="93.96" width="24.76" height="8.77"/><rect class="cls-2" x="63.84" y="93.96" width="8.77" height="24.76"/><rect class="cls-2" x="39.08" y="62.01" width="8.77" height="24.76"/><rect class="cls-2" x="23.09" y="78" width="24.76" height="8.77"/><rect class="cls-2" x="55.41" y="53.23" width="24.76" height="8.77"/><rect class="cls-2" x="55.41" y="37.24" width="8.77" height="24.76"/></g></g></g></g></svg>