<svg xmlns="http://www.w3.org/2000/svg" viewBox="0 0 448.56 155.91"><defs><style>.cls-1{fill:#fff;}.cls-2{fill:#de8326;}</style></defs><g id="Layer_2" data-name="Layer 2"><g id="Layer_1-2" data-name="Layer 1"><rect class="cls-1" width="448.56" height="155.91"/><path class="cls-2" d="M.68,114.21V46.07H13.14v57h28v11.1Z"/><path class="cls-2" d="M74.37,58.23h3.21l-19.66,56H45.85L70.09,46.07H81.87l24.24,68.14H94ZM90.24,98.05H61.72V87.15H90.24Z"/><path class="cls-2" d="M117.59,114.21V46.07h12.27l29.11,44v-44h12.45v68.14H161.2L130.05,67.48v46.73Z"/><path class="cls-2" d="M219.61,115.57a34,34,0,0,1-17.33-4.4A31.2,31.2,0,0,1,190.36,98.8,38.39,38.39,0,0,1,186,80.14a38.46,38.46,0,0,1,4.34-18.67,31.24,31.24,0,0,1,11.92-12.36,36.24,36.24,0,0,1,34.65,0,31.27,31.27,0,0,1,11.93,12.36,38.46,38.46,0,0,1,4.33,18.67,38.39,38.39,0,0,1-4.33,18.66,31.23,31.23,0,0,1-11.93,12.37A33.92,33.92,0,0,1,219.61,115.57Zm0-12.07a20.28,20.28,0,0,0,11.39-3,18.51,18.51,0,0,0,6.86-8.3,30.1,30.1,0,0,0,2.29-12,30.15,30.15,0,0,0-2.29-12,18.51,18.51,0,0,0-6.86-8.3,23,23,0,0,0-22.78,0,18.45,18.45,0,0,0-6.86,8.3,30,30,0,0,0-2.29,12,29.93,29.93,0,0,0,2.29,12,18.45,18.45,0,0,0,6.86,8.3A20.26,20.26,0,0,0,219.61,103.5Z"/><path class="cls-2" d="M283.56,114.21,259.32,46.07h12.56L290.67,99.8h-2.53L307,46.07h12.56l-24.24,68.14Z"/><path class="cls-2" d="M330.77,114.21V46.07h12.46v68.14Zm38.65,0-25.21-36,25.21-32.12H384L358.61,78.19l25.41,36Z"/><path class="cls-2" d="M416.82,58.23H420l-19.67,56H388.3l24.24-68.14h11.78l24.24,68.14H436.49Zm15.87,39.82H404.17V87.15h28.52Z"/></g></g></svg>