<svg xmlns="http://www.w3.org/2000/svg" viewBox="0 0 344.93 190.86"><defs><style>.cls-1{fill:#fff;}</style></defs><g id="Layer_2" data-name="Layer 2"><g id="Layer_1-2" data-name="Layer 1"><path class="cls-1" d="M106.54,4.17H83.32a3.69,3.69,0,0,0-3.69,3.69V40.27c-6.73-6.08-16-9.83-28.5-9.83C24.45,30.44,1.19,57.79.05,89.34c-1.14,31.34,19,54.83,48,54.83A44,44,0,0,0,79.58,131a30.89,30.89,0,0,1-16.4,23.26c-11.21,5.95-27.52,6.45-37,4.58a3.7,3.7,0,0,0-4.44,3.61v22.39a3.66,3.66,0,0,0,2,3.28c9.56,4.77,36.87,3.47,53.7-5.46,9.6-5.09,16.13-10.28,22-17.47a3.7,3.7,0,0,0,.21-4.36L89.2,145.09a2.3,2.3,0,0,1,1.92-3.57h15.42a3.69,3.69,0,0,0,3.69-3.69V7.86A3.69,3.69,0,0,0,106.54,4.17Zm-49.85,108c-10.71,0-18.64-10.67-17.75-24.85.84-13.39,7.18-24.86,17.75-24.86s17.74,6.66,17.74,24.86S67.39,112.16,56.69,112.16Z"/><path class="cls-1" d="M157.16,26.42a23.24,23.24,0,0,1,9.58,7,15.58,15.58,0,0,1,3.49,9.86V81.68A1.33,1.33,0,0,1,168.88,83h-16a1.32,1.32,0,0,1-1-.39,1.28,1.28,0,0,1-.39-1v-4c0-.3-.08-.46-.22-.5s-.31.09-.46.39c-2.86,4.21-7.73,6.31-14.65,6.31q-9,0-14.36-4.22c-3.57-2.82-5.34-7-5.34-12.45q0-8.69,6-13.41T140,49.12H151a.5.5,0,0,0,.57-.57V46.42a6,6,0,0,0-2-4.79,8.32,8.32,0,0,0-5.63-1.75,10.09,10.09,0,0,0-4.68,1,4.84,4.84,0,0,0-2.53,2.59c-.38.82-.9,1.2-1.58,1.12l-16.23-2.14c-.89-.15-1.35-.49-1.35-1a15.68,15.68,0,0,1,3.89-9,23.28,23.28,0,0,1,9.24-6.31,34.61,34.61,0,0,1,12.9-2.31A35.14,35.14,0,0,1,157.16,26.42Zm-8.39,41.91a7.06,7.06,0,0,0,2.76-5.8V59.82a.5.5,0,0,0-.57-.56H144.2a12.37,12.37,0,0,0-6.58,1.46,4.86,4.86,0,0,0-2.31,4.4A5,5,0,0,0,137,69.06a7,7,0,0,0,4.74,1.46A11,11,0,0,0,148.77,68.33Z"/><path class="cls-1" d="M226.32,29.46q5.63,5.58,5.62,15.15V81.68a1.28,1.28,0,0,1-.39,1,1.3,1.3,0,0,1-1,.39h-16a1.3,1.3,0,0,1-1-.39,1.32,1.32,0,0,1-.39-1v-33a9.29,9.29,0,0,0-2.15-6.31,7,7,0,0,0-5.52-2.48A7.13,7.13,0,0,0,200,42.3a9.27,9.27,0,0,0-2.15,6.37v33A1.35,1.35,0,0,1,196.46,83h-16a1.27,1.27,0,0,1-1-.39,1.29,1.29,0,0,1-.4-1V26.14a1.35,1.35,0,0,1,1.35-1.35h16a1.3,1.3,0,0,1,.95.39,1.28,1.28,0,0,1,.4,1v4.17c0,.3.06.46.17.5s.25-.06.39-.28q4.29-6.64,13.52-6.65Q220.68,23.88,226.32,29.46Z"/><path class="cls-1" d="M243.23,16.84a9.52,9.52,0,0,1-2.75-7,9.5,9.5,0,0,1,2.75-7.1,10.53,10.53,0,0,1,14.08,0,9.51,9.51,0,0,1,2.76,7.1,9.6,9.6,0,0,1-2.76,7,10.29,10.29,0,0,1-14.08.05Zm-2,65.8a1.32,1.32,0,0,1-.39-1V26.14a1.3,1.3,0,0,1,.39-1,1.32,1.32,0,0,1,1-.39h16a1.34,1.34,0,0,1,1,.39,1.3,1.3,0,0,1,.39,1V81.68a1.32,1.32,0,0,1-.39,1,1.34,1.34,0,0,1-1,.39h-16A1.32,1.32,0,0,1,241.2,82.64Z"/><path class="cls-1" d="M320.48,57.68A1.31,1.31,0,0,1,319,59H284.65a.77.77,0,0,0-.45.17.31.31,0,0,0-.12.4,16.77,16.77,0,0,0,1.13,3.26,10,10,0,0,0,4.06,3.84,13.88,13.88,0,0,0,6.65,1.46q7.09,0,11.15-4.62a1.29,1.29,0,0,1,1-.57,1.1,1.1,0,0,1,.91.46l8.66,9.91a1.09,1.09,0,0,1,.46.9,1.29,1.29,0,0,1-.46.9,25.46,25.46,0,0,1-9.74,6.54,34.75,34.75,0,0,1-12.67,2.25q-10.26,0-17.41-4.45A25,25,0,0,1,267.52,67,36.45,36.45,0,0,1,265.16,53,35.24,35.24,0,0,1,267,41.68a26.37,26.37,0,0,1,9.62-13.12,26.75,26.75,0,0,1,16-4.79A27.22,27.22,0,0,1,305.83,27a26.12,26.12,0,0,1,9.52,8.9,33.11,33.11,0,0,1,4.79,12.9A46.31,46.31,0,0,1,320.48,57.68ZM284.76,45.4a9.65,9.65,0,0,0-.56,2.37c-.15.38,0,.56.45.56h16a.4.4,0,0,0,.45-.45,7.4,7.4,0,0,0-.45-2.25,7.54,7.54,0,0,0-2.88-4.29,8.9,8.9,0,0,0-5.23-1.46A7.55,7.55,0,0,0,284.76,45.4Z"/><path class="cls-1" d="M326.62,82.64a1.28,1.28,0,0,1-.39-1V5.52a1.28,1.28,0,0,1,.39-1,1.3,1.3,0,0,1,1-.39h16a1.3,1.3,0,0,1,.95.39,1.33,1.33,0,0,1,.4,1V81.68a1.33,1.33,0,0,1-.4,1,1.3,1.3,0,0,1-.95.39h-16A1.3,1.3,0,0,1,326.62,82.64Z"/><path class="cls-1" d="M157.16,114.64a23.24,23.24,0,0,1,9.58,7,15.56,15.56,0,0,1,3.5,9.85V169.9a1.35,1.35,0,0,1-.4,1,1.32,1.32,0,0,1-1,.39h-16a1.3,1.3,0,0,1-.95-.39,1.28,1.28,0,0,1-.4-1V166c0-.3-.08-.47-.23-.51s-.3.1-.44.4q-4.29,6.3-14.65,6.3-9,0-14.37-4.22t-5.35-12.45q0-8.67,6-13.41T140,137.34H151a.5.5,0,0,0,.56-.56v-2.14a6,6,0,0,0-2-4.79,8.43,8.43,0,0,0-5.65-1.74,10.08,10.08,0,0,0-4.67,1,4.77,4.77,0,0,0-2.53,2.59c-.37.83-.91,1.2-1.58,1.13l-16.22-2.15c-.9-.14-1.35-.48-1.35-1a15.57,15.57,0,0,1,3.88-9,23.17,23.17,0,0,1,9.24-6.31,34.61,34.61,0,0,1,12.9-2.32A35.14,35.14,0,0,1,157.16,114.64Zm-8.39,41.91a7,7,0,0,0,2.76-5.8v-2.7a.5.5,0,0,0-.56-.57h-6.76a12.28,12.28,0,0,0-6.59,1.47,4.84,4.84,0,0,0-2.32,4.39,5,5,0,0,0,1.69,3.94,7,7,0,0,0,4.74,1.47A11,11,0,0,0,148.77,156.55Zm-12.56-50.87a1.21,1.21,0,0,1,.11-1.12l5.86-11.15a1.68,1.68,0,0,1,1.68-1h13.87c.75,0,1.13.27,1.13.79a1.92,1.92,0,0,1-.35.9l-8.22,11.27a1.85,1.85,0,0,1-1.58.79H137.22C136.7,106.14,136.36,106,136.21,105.68Z"/><path class="cls-1" d="M179.51,170.86a1.28,1.28,0,0,1-.4-1V93.74a1.31,1.31,0,0,1,.4-1,1.28,1.28,0,0,1,1-.39h16a1.32,1.32,0,0,1,1,.39,1.3,1.3,0,0,1,.39,1V169.9a1.27,1.27,0,0,1-.39,1,1.32,1.32,0,0,1-1,.39h-16A1.28,1.28,0,0,1,179.51,170.86Z"/><path class="cls-1" d="M209.11,105.06a10.42,10.42,0,0,1,0-14.13,10.5,10.5,0,0,1,14.08,0A9.48,9.48,0,0,1,226,98a9.6,9.6,0,0,1-2.76,7,10.26,10.26,0,0,1-14.08,0Zm-2,65.8a1.3,1.3,0,0,1-.39-1V114.36A1.33,1.33,0,0,1,208,113h16a1.3,1.3,0,0,1,1,.39,1.27,1.27,0,0,1,.39,1V169.9a1.27,1.27,0,0,1-.39,1,1.3,1.3,0,0,1-1,.39H208A1.3,1.3,0,0,1,207.08,170.86Z"/><path class="cls-1" d="M243.58,170a20.47,20.47,0,0,1-9.18-6.2,14.25,14.25,0,0,1-3.21-9.18v-1.24a1.34,1.34,0,0,1,.39-1,1.3,1.3,0,0,1,1-.39h15.2a1.35,1.35,0,0,1,1.36,1.35,4.09,4.09,0,0,0,2.37,3.55,11.46,11.46,0,0,0,6,1.41,10.12,10.12,0,0,0,5-1.07,3.23,3.23,0,0,0,1.86-2.88,2.81,2.81,0,0,0-2-2.65,32.49,32.49,0,0,0-6.37-1.63,54.84,54.84,0,0,1-11.49-3.27,25.91,25.91,0,0,1-9.12-5.91q-3.39-3.54-3.38-9.74a16.48,16.48,0,0,1,6.81-13.92q6.81-5.13,18-5.13A33.49,33.49,0,0,1,270,114.53a20.42,20.42,0,0,1,8.84,6.81A17,17,0,0,1,282,131.48a1.27,1.27,0,0,1-.39,1,1.29,1.29,0,0,1-1,.4H265.88a1.29,1.29,0,0,1-1-.4,1.3,1.3,0,0,1-.39-1,4.07,4.07,0,0,0-2-3.49,9.83,9.83,0,0,0-5.51-1.35,10.74,10.74,0,0,0-5.13,1.07,3.28,3.28,0,0,0-2,3,2.9,2.9,0,0,0,2.15,2.77,47.49,47.49,0,0,0,7.2,1.86q6.54,1.35,9.14,2.13a27.12,27.12,0,0,1,10.86,6.09q3.9,3.83,3.89,10.25a15.54,15.54,0,0,1-6.93,13.58q-6.93,4.78-18.64,4.78A40.53,40.53,0,0,1,243.58,170Z"/></g></g></svg>