<svg xmlns="http://www.w3.org/2000/svg" viewBox="0 0 123.46 69.57"><defs><style>.cls-1{fill:#fff;}</style></defs><g id="Layer_2" data-name="Layer 2"><g id="Layer_1-2" data-name="Layer 1"><path class="cls-1" d="M55.93,9.5A8.45,8.45,0,0,1,59.38,12a5.6,5.6,0,0,1,1.25,3.55V29.37a.46.46,0,0,1-.14.35.48.48,0,0,1-.34.14H54.39a.48.48,0,0,1-.34-.14.46.46,0,0,1-.14-.35V28c0-.11,0-.17-.08-.19s-.11,0-.17.15c-1,1.51-2.78,2.26-5.26,2.26a8.13,8.13,0,0,1-5.17-1.51,5.38,5.38,0,0,1-1.92-4.48,5.77,5.77,0,0,1,2.16-4.82c1.45-1.14,3.55-1.7,6.31-1.7H53.7a.19.19,0,0,0,.21-.21v-.77A2.17,2.17,0,0,0,53.18,15a3,3,0,0,0-2-.63,3.53,3.53,0,0,0-1.68.37,1.74,1.74,0,0,0-.91.93c-.14.3-.32.43-.57.4l-5.83-.77c-.33,0-.49-.17-.49-.36a5.67,5.67,0,0,1,1.4-3.22,8.28,8.28,0,0,1,3.32-2.27,13.52,13.52,0,0,1,9.54.08Zm-3,15.07a2.52,2.52,0,0,0,1-2.08v-1a.18.18,0,0,0-.21-.2H51.27a4.47,4.47,0,0,0-2.37.53,1.76,1.76,0,0,0-.83,1.58,1.81,1.81,0,0,0,.61,1.42,2.52,2.52,0,0,0,1.7.52A4,4,0,0,0,52.92,24.57Z"/><path class="cls-1" d="M80.8,10.59a7.34,7.34,0,0,1,2,5.45V29.37a.48.48,0,0,1-.49.49H76.59a.48.48,0,0,1-.49-.49V17.5a3.32,3.32,0,0,0-.77-2.27,2.5,2.5,0,0,0-2-.89,2.57,2.57,0,0,0-2,.87,3.36,3.36,0,0,0-.77,2.29V29.37a.5.5,0,0,1-.14.35.48.48,0,0,1-.34.14H64.31a.48.48,0,0,1-.34-.14.46.46,0,0,1-.14-.35V9.4A.42.42,0,0,1,64,9.06a.45.45,0,0,1,.34-.15h5.76a.45.45,0,0,1,.34.15.46.46,0,0,1,.14.34v1.5q0,.16.06.18s.09,0,.14-.1a5.38,5.38,0,0,1,4.87-2.39A7.08,7.08,0,0,1,80.8,10.59Z"/><path class="cls-1" d="M86.89,6.06a3.41,3.41,0,0,1-1-2.54,3.38,3.38,0,0,1,1-2.55A3.78,3.78,0,0,1,92,1a3.42,3.42,0,0,1,1,2.55A3.48,3.48,0,0,1,92,6a3.7,3.7,0,0,1-5.06,0Zm-.73,23.66a.47.47,0,0,1-.15-.35V9.4a.43.43,0,0,1,.15-.34.45.45,0,0,1,.34-.15h5.76a.46.46,0,0,1,.34.15.42.42,0,0,1,.14.34v20a.46.46,0,0,1-.14.35.49.49,0,0,1-.34.14H86.5A.48.48,0,0,1,86.16,29.72Z"/><path class="cls-1" d="M114.67,20.74a.47.47,0,0,1-.53.49H101.78a.29.29,0,0,0-.16.06.1.1,0,0,0,0,.14,5.76,5.76,0,0,0,.41,1.18A3.59,3.59,0,0,0,103.44,24a5,5,0,0,0,2.4.52,5.06,5.06,0,0,0,4-1.66.45.45,0,0,1,.36-.2.39.39,0,0,1,.33.16l3.11,3.57a.39.39,0,0,1,.17.32.45.45,0,0,1-.17.32,9.13,9.13,0,0,1-3.5,2.35,12.49,12.49,0,0,1-4.56.81,11.61,11.61,0,0,1-6.26-1.6,9,9,0,0,1-3.71-4.47A13.28,13.28,0,0,1,94.77,19a12.82,12.82,0,0,1,.65-4,9.34,9.34,0,0,1,9.2-6.44A9.8,9.8,0,0,1,109.4,9.7a9.37,9.37,0,0,1,3.42,3.2,12.07,12.07,0,0,1,1.73,4.64A17,17,0,0,1,114.67,20.74Zm-12.85-4.41a3.59,3.59,0,0,0-.2.85c-.05.14,0,.2.16.2h5.76a.14.14,0,0,0,.16-.16,2.87,2.87,0,0,0-.16-.81,2.69,2.69,0,0,0-1-1.54,3.21,3.21,0,0,0-1.88-.53A2.71,2.71,0,0,0,101.82,16.33Z"/><path class="cls-1" d="M116.88,29.72a.46.46,0,0,1-.14-.35V2a.46.46,0,0,1,.14-.35.48.48,0,0,1,.34-.14H123a.48.48,0,0,1,.34.14.5.5,0,0,1,.14.35V29.37a.5.5,0,0,1-.14.35.48.48,0,0,1-.34.14h-5.76A.48.48,0,0,1,116.88,29.72Z"/><path class="cls-1" d="M55.93,41.23a8.36,8.36,0,0,1,3.45,2.51,5.67,5.67,0,0,1,1.26,3.55V61.1a.51.51,0,0,1-.15.35.48.48,0,0,1-.34.14H54.39a.48.48,0,0,1-.34-.14.46.46,0,0,1-.14-.35V59.68c0-.1,0-.16-.08-.18s-.11,0-.16.14c-1,1.52-2.79,2.27-5.27,2.27a8.08,8.08,0,0,1-5.17-1.52,5.35,5.35,0,0,1-1.92-4.47,5.77,5.77,0,0,1,2.16-4.82q2.18-1.71,6.31-1.71h3.93a.18.18,0,0,0,.2-.2v-.77a2.14,2.14,0,0,0-.73-1.72,3,3,0,0,0-2-.63,3.56,3.56,0,0,0-1.68.37,1.71,1.71,0,0,0-.91.93c-.13.3-.33.43-.57.4L42.16,47c-.33,0-.49-.17-.49-.36a5.6,5.6,0,0,1,1.4-3.22,8.28,8.28,0,0,1,3.32-2.27A12.33,12.33,0,0,1,51,40.32,12.58,12.58,0,0,1,55.93,41.23Zm-3,15.07a2.5,2.5,0,0,0,1-2.08v-1a.18.18,0,0,0-.2-.2H51.27a4.47,4.47,0,0,0-2.37.53,1.74,1.74,0,0,0-.83,1.58,1.82,1.82,0,0,0,.61,1.42,2.52,2.52,0,0,0,1.7.52A3.9,3.9,0,0,0,52.91,56.3ZM48.4,38a.44.44,0,0,1,0-.41l2.11-4a.59.59,0,0,1,.6-.36h5c.27,0,.4.09.4.28a.74.74,0,0,1-.12.33l-3,4a.64.64,0,0,1-.57.28H48.76C48.57,38.17,48.45,38.12,48.4,38Z"/><path class="cls-1" d="M64,61.45a.46.46,0,0,1-.14-.35V33.71a.48.48,0,0,1,.48-.48h5.76a.48.48,0,0,1,.48.48V61.1a.46.46,0,0,1-.14.35.48.48,0,0,1-.34.14H64.31A.48.48,0,0,1,64,61.45Z"/><path class="cls-1" d="M74.62,37.79a3.43,3.43,0,0,1-1-2.54,3.39,3.39,0,0,1,1-2.55,3.54,3.54,0,1,1,0,5.09Zm-.73,23.66a.46.46,0,0,1-.14-.35v-20a.46.46,0,0,1,.14-.35.48.48,0,0,1,.34-.14H80a.48.48,0,0,1,.49.49v20a.48.48,0,0,1-.49.49H74.23A.48.48,0,0,1,73.89,61.45Z"/><path class="cls-1" d="M87,61.12a7.32,7.32,0,0,1-3.3-2.23,5.08,5.08,0,0,1-1.15-3.3v-.44a.46.46,0,0,1,.14-.35.48.48,0,0,1,.34-.14h5.47a.48.48,0,0,1,.49.49,1.46,1.46,0,0,0,.85,1.27,4.12,4.12,0,0,0,2.15.51,3.59,3.59,0,0,0,1.8-.39,1.16,1.16,0,0,0,.67-1,1,1,0,0,0-.71-.95A11.72,11.72,0,0,0,91.47,54a19.84,19.84,0,0,1-4.14-1.17,9.37,9.37,0,0,1-3.27-2.13,4.83,4.83,0,0,1-1.22-3.5,5.92,5.92,0,0,1,2.45-5,10.47,10.47,0,0,1,6.46-1.84,12.07,12.07,0,0,1,4.76.87,7.29,7.29,0,0,1,3.18,2.45,6.07,6.07,0,0,1,1.14,3.65.48.48,0,0,1-.14.34.46.46,0,0,1-.35.14H95a.44.44,0,0,1-.34-.14.48.48,0,0,1-.14-.34A1.47,1.47,0,0,0,93.82,46a3.59,3.59,0,0,0-2-.49,3.81,3.81,0,0,0-1.84.39A1.19,1.19,0,0,0,89.28,47a1.05,1.05,0,0,0,.77,1,17.12,17.12,0,0,0,2.59.66c1.57.33,2.66.59,3.29.77a9.73,9.73,0,0,1,3.91,2.19,5,5,0,0,1,1.39,3.69,5.58,5.58,0,0,1-2.49,4.88A11.57,11.57,0,0,1,92,61.91,14.47,14.47,0,0,1,87,61.12Z"/><path class="cls-1" d="M32.5,63.06l-.35-.84-3-7.17a.44.44,0,0,1,.4-.61h6.81a.89.89,0,0,0,.91-.91V2.41A.91.91,0,0,0,37,1.76a.88.88,0,0,0-.64-.26H25.64a.9.9,0,0,0-.91.91V18.14q0,.22-.15.27a.32.32,0,0,1-.3-.12q-3-3.33-8.4-3.33A14.63,14.63,0,0,0,7,17.76a16,16,0,0,0-5.57,7.49A26.69,26.69,0,0,0,0,34.78a28.47,28.47,0,0,0,1.21,8.93q1.82,5.52,6,7.71a19.31,19.31,0,0,0,9.14,2.19c3.43,0,6.06-.9,7.88-2.72l.52-.53q0,4.23-2.5,6.2a10.7,10.7,0,0,1-6.8,2,27.09,27.09,0,0,1-5.75-.68.84.84,0,0,0-.75,0,.76.76,0,0,0-.31.72L8.24,68c0,.61.25.94.76,1a46,46,0,0,0,7.19.6q9.14,0,15.12-4.46a6.09,6.09,0,0,0,1.12-1A1,1,0,0,0,32.5,63.06ZM24.05,40.38a5,5,0,0,1-5.14,3.48,5.36,5.36,0,0,1-3.25-1,6,6,0,0,1-2.05-2.57,11.56,11.56,0,0,1-1-5.44,12,12,0,0,1,1.13-5.6,5.2,5.2,0,0,1,5.07-3.55A5.17,5.17,0,0,1,24,29.26a8.1,8.1,0,0,1,.61,2.23,26.72,26.72,0,0,1,.15,3.22A17.05,17.05,0,0,1,24.05,40.38Z"/></g></g></svg>