<?xml version="1.0" encoding="utf-8"?>
<!-- Generator: Adobe Illustrator 25.0.1, SVG Export Plug-In . SVG Version: 6.00 Build 0)  -->
<svg version="1.1" id="Layer_1" xmlns="http://www.w3.org/2000/svg" xmlns:xlink="http://www.w3.org/1999/xlink" x="0px" y="0px"
	 viewBox="0 0 42.7 24" style="enable-background:new 0 0 42.7 24;" xml:space="preserve">
<style type="text/css">
	.st0{fill:#FFFFFF;}
</style>
<g id="Layer_2_1_">
	<g id="Layer_1-2">
		<path class="st0" d="M12,19.7l-1.2-0.9h1.8c0.1,0,0.2,0,0.2-0.1c0.1-0.1,0.1-0.1,0.1-0.2V0.8c0-0.2-0.1-0.3-0.3-0.3l0,0H8.9
			c-0.2,0-0.3,0.1-0.3,0.3c0,0,0,0,0,0v5.4c0,0,0,0.1-0.1,0.1c0,0-0.1,0-0.1,0C7.6,5.6,6.6,5.1,5.5,5.2c-1.1,0-2.2,0.3-3.1,1
			C1.5,6.8,0.9,7.7,0.5,8.7C0.1,9.8,0,10.9,0,12c0,1,0.1,2.1,0.4,3.1c0.3,1.1,1,2.1,2.1,2.7c1,0.5,2.1,0.8,3.2,0.8
			c1,0.1,2-0.3,2.7-1l0.2-0.2c0.1,0.8-0.3,1.6-0.9,2.1C7,20,6.2,20.2,5.3,20.2c-0.7,0-1.3-0.1-2-0.2c-0.1,0-0.2,0-0.3,0
			C3,20,2.9,20.1,3,20.2l-0.1,3.2c0,0.2,0.1,0.3,0.3,0.3C3.9,23.9,4.8,24,5.6,24c1.9,0.1,3.7-0.5,5.2-1.5c0.7-0.6,1.3-1.3,1.6-2.2
			C12.5,20.1,12.5,20,12,19.7z M8.3,14c-0.2,0.8-1,1.3-1.8,1.2c-0.4,0-0.8-0.1-1.1-0.3c-0.3-0.2-0.6-0.5-0.7-0.9
			c-0.3-0.6-0.4-1.3-0.3-2c0-0.7,0.1-1.3,0.4-1.9c0.3-0.7,1-1.2,1.8-1.2c0.4,0,0.8,0.1,1.1,0.3c0.3,0.2,0.5,0.5,0.7,0.9
			c0.1,0.2,0.2,0.5,0.2,0.8c0,0.4,0.1,0.7,0.1,1.1C8.6,12.7,8.5,13.4,8.3,14z"/>
		<path class="st0" d="M19.3,3.3c0.5,0.2,0.9,0.5,1.2,0.9C20.8,4.5,21,4.9,21,5.4v4.8c0,0.1-0.1,0.2-0.2,0.2l0,0h-2
			c0,0-0.1,0-0.1-0.1c0,0-0.1-0.1,0-0.1V9.7V9.6c0,0,0,0-0.1,0.1c-0.4,0.6-1.1,0.9-1.8,0.8c-0.6,0-1.3-0.2-1.8-0.5
			c-0.5-0.4-0.7-0.9-0.7-1.5c-0.1-0.6,0.2-1.2,0.7-1.7c0.6-0.4,1.4-0.6,2.2-0.6h1.4c0,0,0.1,0,0.1,0c0,0,0-0.1,0-0.1l0,0V5.8
			c0-0.2-0.1-0.4-0.3-0.6C18.2,5,17.9,4.9,17.7,5c-0.2,0-0.4,0-0.6,0.1c-0.1,0.1-0.2,0.2-0.3,0.3c0,0.1-0.1,0.2-0.2,0.1l-2-0.3
			c-0.1,0-0.2-0.1-0.2-0.1c0-0.4,0.2-0.8,0.5-1.1c0.3-0.3,0.7-0.6,1.1-0.8C16.5,3.1,17.1,3,17.6,3C18.2,3,18.8,3.1,19.3,3.3z
			 M18.3,8.5c0.2-0.2,0.4-0.4,0.4-0.7V7.4c0,0,0-0.1-0.1-0.1h-0.8c-0.3,0-0.6,0-0.8,0.2c-0.2,0.1-0.3,0.3-0.3,0.5
			c0,0.2,0.1,0.4,0.2,0.5c0.2,0.1,0.4,0.2,0.6,0.2C17.8,8.8,18,8.7,18.3,8.5L18.3,8.5z"/>
		<path class="st0" d="M27.9,3.7c0.5,0.5,0.7,1.2,0.7,1.9v4.6c0,0.1-0.1,0.2-0.2,0.2l0,0h-2c0,0-0.1,0-0.1-0.1c0,0,0-0.1,0-0.1V6.1
			c0-0.3-0.1-0.6-0.3-0.8c-0.4-0.4-1-0.4-1.4,0c-0.2,0.2-0.3,0.5-0.3,0.8v4.1c0,0.1-0.1,0.2-0.2,0.2l0,0h-2c-0.1,0-0.2-0.1-0.2-0.2
			l0,0V3.2c0-0.1,0.1-0.2,0.2-0.2l0,0h2c0.1,0,0.2,0.1,0.2,0.2c0,0,0,0,0,0v0.5c0,0,0,0,0,0.1s0,0,0,0c0.4-0.6,1-0.9,1.7-0.8
			C26.8,3,27.4,3.2,27.9,3.7z"/>
		<path class="st0" d="M30,2.1c-0.2-0.2-0.4-0.5-0.3-0.9c0-0.3,0.1-0.6,0.3-0.9c0.5-0.5,1.3-0.5,1.8,0c0.2,0.2,0.4,0.6,0.3,0.9
			c0,0.3-0.1,0.6-0.3,0.9C31.3,2.6,30.5,2.6,30,2.1z M29.8,10.3c0,0,0-0.1,0-0.1V3.2c0-0.1,0.1-0.2,0.2-0.2l0,0h2c0,0,0.1,0,0.1,0
			c0,0,0,0.1,0,0.1v6.9c0,0,0,0.1,0,0.1c0,0-0.1,0-0.1,0.1h-2C29.8,10.3,29.8,10.3,29.8,10.3L29.8,10.3z"/>
		<path class="st0" d="M39.6,7.2c0,0.1-0.1,0.2-0.2,0.2c0,0,0,0,0,0h-4.3c0,0,0,0-0.1,0l0,0c0,0.1,0.1,0.3,0.1,0.4
			c0.1,0.2,0.3,0.4,0.5,0.5c0.3,0.1,0.5,0.2,0.8,0.2c0.5,0.1,1-0.1,1.4-0.5c0,0,0.1-0.1,0.1-0.1c0,0,0.1,0,0.1,0l1.1,1.2
			c0,0,0.1,0.1,0.1,0.1c0,0,0,0.1-0.1,0.1c-0.3,0.4-0.8,0.6-1.2,0.8c-0.5,0.2-1,0.3-1.6,0.3c-0.8,0-1.5-0.2-2.2-0.6
			C33.8,9.5,33.3,9,33,8.3c-0.2-0.6-0.3-1.2-0.3-1.8c0-0.5,0.1-1,0.3-1.4C33.5,3.8,34.7,3,36.2,3c0.6,0,1.1,0.1,1.7,0.4
			C38.3,3.6,38.7,4,39,4.5c0.3,0.5,0.5,1,0.6,1.6C39.6,6.4,39.7,6.8,39.6,7.2z M35.2,5.6c0,0.1-0.1,0.2-0.1,0.3c0,0,0,0.1,0.1,0.1h2
			c0,0,0,0,0-0.1c0-0.1,0-0.2,0-0.3c-0.1-0.2-0.2-0.4-0.4-0.5C36.6,5,36.4,5,36.2,5C35.7,5,35.3,5.2,35.2,5.6z"/>
		<path class="st0" d="M40.4,10.3c0,0,0-0.1,0-0.1V0.7c0-0.1,0-0.2,0.1-0.2h2c0,0,0.1,0,0.1,0c0,0,0,0.1,0,0.1v9.5
			c0,0.1-0.1,0.2-0.2,0.2H40.4C40.4,10.3,40.4,10.3,40.4,10.3z"/>
		<path class="st0" d="M19.3,14.2c0.5,0.2,0.9,0.5,1.2,0.9c0.3,0.3,0.5,0.8,0.5,1.2v4.8c0,0.1-0.1,0.2-0.2,0.2l0,0h-2
			c0,0-0.1,0-0.1,0c0,0-0.1-0.1,0-0.1v-0.5v-0.1c0,0,0,0-0.1,0c-0.4,0.6-1.1,0.9-1.8,0.8c-0.6,0-1.3-0.1-1.8-0.5
			c-0.5-0.4-0.7-1-0.7-1.5c-0.1-0.6,0.2-1.2,0.7-1.7c0.6-0.4,1.4-0.6,2.2-0.6h1.4c0,0,0.1,0,0.1-0.1v-0.3c0-0.2-0.1-0.4-0.3-0.6
			c-0.2-0.2-0.4-0.2-0.7-0.2c-0.2,0-0.4,0-0.6,0.1c-0.1,0.1-0.3,0.2-0.3,0.3c0,0.1-0.1,0.1-0.2,0.1l-2-0.3c-0.1,0-0.2-0.1-0.2-0.1
			c0-0.4,0.2-0.8,0.5-1.1c0.3-0.3,0.7-0.6,1.1-0.8c0.5-0.2,1.1-0.3,1.6-0.3C18.2,13.9,18.8,14,19.3,14.2z M18.3,19.5
			c0.2-0.2,0.4-0.4,0.4-0.7v-0.3c0,0,0-0.1,0-0.1c0,0,0,0,0,0h-0.8c-0.3,0-0.6,0-0.8,0.2c-0.2,0.1-0.3,0.3-0.3,0.5
			c0,0.2,0.1,0.4,0.2,0.5c0.2,0.1,0.4,0.2,0.6,0.2C17.8,19.7,18,19.6,18.3,19.5L18.3,19.5z M16.8,13.1c0,0,0-0.1,0-0.1l0.7-1.4
			c0-0.1,0.1-0.1,0.2-0.1h1.7c0.1,0,0.1,0,0.1,0.1c0,0,0,0.1,0,0.1l-1,1.4c0,0.1-0.1,0.1-0.2,0.1L16.8,13.1
			C16.8,13.2,16.7,13.2,16.8,13.1L16.8,13.1z"/>
		<path class="st0" d="M22.1,21.2c0,0,0-0.1,0-0.1v-9.5c0,0,0-0.1,0-0.1c0,0,0.1,0,0.1,0h2c0.1,0,0.2,0.1,0.2,0.2l0,0v9.5
			c0,0.1-0.1,0.2-0.2,0.2l0,0h-2C22.2,21.3,22.1,21.3,22.1,21.2z"/>
		<path class="st0" d="M25.8,13.1c-0.2-0.2-0.4-0.6-0.3-0.9c0-0.3,0.1-0.6,0.3-0.9c0.5-0.5,1.3-0.5,1.8,0c0.5,0.5,0.5,1.3,0,1.8
			c-0.2,0.2-0.5,0.4-0.9,0.4C26.3,13.4,26,13.3,25.8,13.1z M25.5,21.2c0,0,0-0.1,0-0.1v-6.9c0-0.1,0.1-0.2,0.2-0.2l0,0h2
			c0,0,0.1,0,0.1,0.1c0,0,0,0.1,0,0.1v6.9c0,0,0,0.1,0,0.1c0,0-0.1,0-0.1,0h-2C25.6,21.3,25.6,21.3,25.5,21.2z"/>
		<path class="st0" d="M30.1,21.1c-0.4-0.1-0.8-0.4-1.1-0.8c-0.3-0.3-0.4-0.7-0.4-1.1v-0.2c0,0,0-0.1,0-0.1c0,0,0.1-0.1,0.1,0h1.9
			c0,0,0.1,0,0.1,0c0,0,0,0.1,0,0.1c0,0.2,0.1,0.4,0.3,0.5c0.2,0.1,0.5,0.2,0.7,0.2c0.2,0,0.4,0,0.6-0.1c0.1-0.1,0.2-0.2,0.2-0.4
			c0-0.2-0.1-0.3-0.2-0.3c-0.3-0.1-0.5-0.2-0.8-0.2c-0.5-0.1-1-0.2-1.4-0.4c-0.4-0.2-0.8-0.4-1.2-0.7c-0.3-0.3-0.4-0.8-0.4-1.2
			c0-0.7,0.3-1.3,0.9-1.7c0.7-0.5,1.4-0.7,2.2-0.6c0.6,0,1.1,0.1,1.7,0.3c0.4,0.2,0.8,0.5,1.1,0.9c0.3,0.4,0.4,0.8,0.4,1.3
			c0,0.1-0.1,0.2-0.2,0.2h-1.8c-0.1,0-0.2-0.1-0.2-0.2c0-0.2-0.1-0.3-0.2-0.4c-0.2-0.1-0.4-0.2-0.7-0.2c-0.2,0-0.4,0-0.6,0.1
			c-0.1,0.1-0.2,0.2-0.2,0.4c0,0.2,0.1,0.3,0.3,0.3c0.3,0.1,0.6,0.2,0.9,0.2c0.5,0.1,0.9,0.2,1.1,0.3c0.5,0.1,1,0.4,1.3,0.8
			c0.3,0.3,0.5,0.8,0.5,1.3c0,0.7-0.3,1.3-0.9,1.7c-0.7,0.4-1.5,0.6-2.3,0.6C31.2,21.4,30.6,21.3,30.1,21.1z"/>
	</g>
</g>
</svg>
