<svg xmlns="http://www.w3.org/2000/svg" viewBox="0 0 48.96 18.34"><defs><style>.cls-1{fill:#3b47ff;}</style></defs><g id="Layer_2" data-name="Layer 2"><g id="Layer_3" data-name="Layer 3"><path d="M21.44,14.39l.63-1.63a5.74,5.74,0,0,0,2.41.56c1.09,0,1.6-.43,1.6-1,0-1.48-4.34-.9-4.34-4C21.74,6.57,23.4,5.7,25,5.7a5,5,0,0,1,2.85.69L27.24,8a4.72,4.72,0,0,0-2.16-.49c-.71,0-1.2.35-1.2.85,0,1.21,4.42,1.08,4.42,3.89,0,2-1.91,2.87-3.8,2.87A6,6,0,0,1,21.44,14.39Z"/><path d="M29.74,5.84h2.19V15H29.74Z"/><path d="M34.08,5.84h6V7.56h-3.8v2h3.52v1.61H36.27v2.06h4.1V15H34.08Z"/><path d="M43.9,7.56H41V5.84H49V7.56H46.1V15H43.9ZM45,5.41,42.52,4.16l.75-1.37L45,3.56l1.71-.77.77,1.37Z"/><rect class="cls-1" x="5" width="3.35" height="3.35"/><rect y="5" width="3.35" height="3.35"/><rect class="cls-1" x="14.99" y="9.99" width="3.35" height="3.35"/><rect x="9.99" y="14.99" width="3.35" height="3.35"/><rect y="14.99" width="3.35" height="3.35"/><rect class="cls-1" x="5.83" y="1.67" width="1.67" height="3.74"/><rect class="cls-1" x="5.83" y="7.93" width="1.67" height="3.74"/><rect class="cls-1" x="5.83" y="10.83" width="4.57" height="1.67"/><rect class="cls-1" x="12.92" y="10.83" width="3.74" height="1.67"/><polygon points="12.5 16.66 10.83 16.66 10.83 7.51 1.67 7.51 1.67 5.83 12.5 5.83 12.5 16.66"/><polygon class="cls-1" points="3.77 14.57 3.77 14.99 3.77 15.75 7.02 12.5 5.83 11.32 2.58 14.57 3.77 14.57"/></g></g></svg>