<svg xmlns="http://www.w3.org/2000/svg" viewBox="0 0 62.36 187.5"><defs><style>.cls-1{fill:#231f20;}.cls-2{fill:#fff;}.cls-3{fill:#3b47ff;}.cls-4{fill:#ff6a29;}</style></defs><g id="Layer_2" data-name="Layer 2"><g id="Layer_3" data-name="Layer 3"><rect class="cls-1" y="125.14" width="62.36" height="62.36"/><rect class="cls-1" x="22.7" y="9.42" width="8.48" height="8.48"/><rect class="cls-1" x="10.03" y="22.09" width="8.48" height="8.48"/><rect class="cls-1" x="48.02" y="34.75" width="8.48" height="8.48"/><rect class="cls-1" x="35.36" y="47.41" width="8.48" height="8.48"/><rect class="cls-1" x="10.03" y="47.41" width="8.48" height="8.48"/><rect class="cls-1" x="24.82" y="13.67" width="4.24" height="9.47"/><rect class="cls-1" x="24.82" y="29.52" width="4.24" height="9.48"/><rect class="cls-1" x="24.82" y="36.87" width="11.6" height="4.24"/><rect class="cls-1" x="42.79" y="36.87" width="9.47" height="4.24"/><polygon class="cls-1" points="41.73 51.66 37.48 51.66 37.48 28.45 14.27 28.45 14.27 24.21 41.73 24.21 41.73 51.66"/><polygon class="cls-1" points="19.59 46.35 19.59 47.41 19.59 49.35 27.82 41.12 24.82 38.11 16.59 46.35 19.59 46.35"/><rect class="cls-1" x="22.7" y="131.6" width="8.48" height="8.48"/><rect class="cls-1" x="10.03" y="144.26" width="8.48" height="8.48"/><rect class="cls-1" x="48.02" y="156.93" width="8.48" height="8.48"/><rect class="cls-1" x="35.36" y="169.59" width="8.48" height="8.48"/><rect class="cls-1" x="10.03" y="169.59" width="8.48" height="8.48"/><rect class="cls-1" x="24.82" y="135.84" width="4.24" height="9.47"/><rect class="cls-1" x="24.82" y="151.69" width="4.24" height="9.48"/><rect class="cls-1" x="24.82" y="159.05" width="11.6" height="4.24"/><rect class="cls-1" x="42.79" y="159.05" width="9.47" height="4.24"/><polygon class="cls-1" points="41.73 173.84 37.48 173.84 37.48 150.63 14.27 150.63 14.27 146.38 41.73 146.38 41.73 173.84"/><polygon class="cls-1" points="19.59 168.52 19.59 169.59 19.59 171.52 27.82 163.29 24.82 160.29 16.59 168.52 19.59 168.52"/><rect class="cls-1" x="22.7" y="70.8" width="8.48" height="8.48"/><rect class="cls-1" x="10.03" y="83.47" width="8.48" height="8.48"/><rect class="cls-1" x="48.02" y="96.13" width="8.48" height="8.48"/><rect class="cls-1" x="35.36" y="108.8" width="8.48" height="8.48"/><rect class="cls-1" x="10.03" y="108.8" width="8.48" height="8.48"/><rect class="cls-1" x="24.82" y="75.05" width="4.24" height="9.47"/><rect class="cls-1" x="24.82" y="90.9" width="4.24" height="9.48"/><rect class="cls-1" x="24.82" y="98.25" width="11.6" height="4.24"/><rect class="cls-1" x="42.79" y="98.25" width="9.47" height="4.24"/><polygon class="cls-1" points="41.73 113.04 37.48 113.04 37.48 89.83 14.27 89.83 14.27 85.59 41.73 85.59 41.73 113.04"/><polygon class="cls-1" points="19.59 107.73 19.59 108.8 19.59 110.73 27.82 102.5 24.82 99.5 16.59 107.73 19.59 107.73"/><rect y="125.14" width="62.36" height="62.36"/><rect class="cls-2" y="62.57" width="62.36" height="62.36"/><rect class="cls-2" width="62.36" height="62.36"/><rect class="cls-3" x="22.7" y="9.42" width="8.48" height="8.48"/><rect x="10.03" y="22.09" width="8.48" height="8.48"/><rect class="cls-3" x="48.02" y="34.75" width="8.48" height="8.48"/><rect x="35.36" y="47.41" width="8.48" height="8.48"/><rect x="10.03" y="47.41" width="8.48" height="8.48"/><rect class="cls-3" x="24.82" y="13.67" width="4.24" height="9.47"/><rect class="cls-3" x="24.82" y="29.52" width="4.24" height="9.48"/><rect class="cls-3" x="24.82" y="36.87" width="11.6" height="4.24"/><rect class="cls-3" x="42.79" y="36.87" width="9.47" height="4.24"/><polygon points="41.73 51.66 37.48 51.66 37.48 28.45 14.27 28.45 14.27 24.21 41.73 24.21 41.73 51.66"/><polygon class="cls-3" points="19.59 46.35 19.59 47.41 19.59 49.35 27.82 41.12 24.82 38.11 16.59 46.35 19.59 46.35"/><rect class="cls-2" x="22.7" y="131.6" width="8.48" height="8.48"/><rect class="cls-4" x="10.03" y="144.26" width="8.48" height="8.48"/><rect class="cls-2" x="48.02" y="156.93" width="8.48" height="8.48"/><rect class="cls-4" x="35.36" y="169.59" width="8.48" height="8.48"/><rect class="cls-4" x="10.03" y="169.59" width="8.48" height="8.48"/><rect class="cls-2" x="24.82" y="135.84" width="4.24" height="9.47"/><rect class="cls-2" x="24.82" y="151.69" width="4.24" height="9.48"/><rect class="cls-2" x="24.82" y="159.05" width="11.6" height="4.24"/><rect class="cls-2" x="42.79" y="159.05" width="9.47" height="4.24"/><polygon class="cls-4" points="41.73 173.84 37.48 173.84 37.48 150.63 14.27 150.63 14.27 146.38 41.73 146.38 41.73 173.84"/><polygon class="cls-2" points="19.59 168.52 19.59 169.59 19.59 171.52 27.82 163.29 24.82 160.29 16.59 168.52 19.59 168.52"/><rect x="22.7" y="70.8" width="8.48" height="8.48"/><rect x="10.03" y="83.47" width="8.48" height="8.48"/><rect x="48.02" y="96.13" width="8.48" height="8.48"/><rect x="35.36" y="108.8" width="8.48" height="8.48"/><rect x="10.03" y="108.8" width="8.48" height="8.48"/><rect x="24.82" y="75.05" width="4.24" height="9.47"/><rect x="24.82" y="90.9" width="4.24" height="9.48"/><rect x="24.82" y="98.25" width="11.6" height="4.24"/><rect x="42.79" y="98.25" width="9.47" height="4.24"/><polygon points="41.73 113.04 37.48 113.04 37.48 89.83 14.27 89.83 14.27 85.59 41.73 85.59 41.73 113.04"/><polygon points="19.59 107.73 19.59 108.8 19.59 110.73 27.82 102.5 24.82 99.5 16.59 107.73 19.59 107.73"/></g></g></svg>