<svg xmlns="http://www.w3.org/2000/svg" viewBox="0 0 36.01 24.04"><g id="Layer_2" data-name="Layer 2"><g id="Layer_1-2" data-name="Layer 1"><path d="M12.68,3.28a2.91,2.91,0,0,1,1.19.87,1.94,1.94,0,0,1,.43,1.23v4.77a.17.17,0,0,1-.17.17h-2a.16.16,0,0,1-.11-.05.13.13,0,0,1,0-.12V9.66s0-.06,0-.06,0,0-.06.05a2,2,0,0,1-1.82.78A2.79,2.79,0,0,1,8.29,9.9a1.82,1.82,0,0,1-.67-1.54,2,2,0,0,1,.75-1.67,3.49,3.49,0,0,1,2.18-.59h1.36A.06.06,0,0,0,12,6V5.77a.76.76,0,0,0-.26-.6A1,1,0,0,0,11,5a1.34,1.34,0,0,0-.58.12.64.64,0,0,0-.31.32c-.05.11-.11.15-.2.14l-2-.26c-.12,0-.17-.06-.17-.13A2,2,0,0,1,8.23,4a3.06,3.06,0,0,1,1.15-.79A4.3,4.3,0,0,1,11,3,4.4,4.4,0,0,1,12.68,3.28Zm-1,5.21A.87.87,0,0,0,12,7.77V7.43a.07.07,0,0,0-.07-.07h-.84a1.44,1.44,0,0,0-.82.19.6.6,0,0,0-.29.54.61.61,0,0,0,.21.49.89.89,0,0,0,.59.18A1.37,1.37,0,0,0,11.63,8.49Z"/><path d="M21.27,3.66A2.51,2.51,0,0,1,22,5.54v4.61a.17.17,0,0,1-.17.17h-2a.16.16,0,0,1-.11-.05.13.13,0,0,1-.05-.12V6.05a1.17,1.17,0,0,0-.27-.79.89.89,0,0,0-.69-.3.91.91,0,0,0-.7.3,1.17,1.17,0,0,0-.26.79v4.1a.17.17,0,0,1-.17.17h-2a.21.21,0,0,1-.12-.05.17.17,0,0,1,0-.12V3.25a.17.17,0,0,1,0-.12.21.21,0,0,1,.12,0h2a.17.17,0,0,1,.17.17v.52a.08.08,0,0,0,0,.06s0,0,.05,0A1.84,1.84,0,0,1,19.48,3,2.44,2.44,0,0,1,21.27,3.66Z"/><path d="M23.37,2.09A1.18,1.18,0,0,1,23,1.22a1.15,1.15,0,0,1,.34-.88,1.3,1.3,0,0,1,1.75,0,1.16,1.16,0,0,1,.35.88,1.22,1.22,0,0,1-.35.87,1.27,1.27,0,0,1-1.75,0Zm-.25,8.18a.17.17,0,0,1-.05-.12V3.25a.17.17,0,0,1,.17-.17h2a.21.21,0,0,1,.12,0,.17.17,0,0,1,0,.12v6.9a.17.17,0,0,1,0,.12.21.21,0,0,1-.12.05h-2A.17.17,0,0,1,23.12,10.27Z"/><path d="M33,7.17a.17.17,0,0,1-.18.17H28.52a.07.07,0,0,0-.06,0s0,0,0,0a2.44,2.44,0,0,0,.14.4,1.22,1.22,0,0,0,.5.48,2,2,0,0,0,2.22-.39.13.13,0,0,1,.12-.07c.05,0,.09,0,.11,0l1.08,1.23a.14.14,0,0,1,.06.12.17.17,0,0,1-.06.11,3.31,3.31,0,0,1-1.21.81,4.25,4.25,0,0,1-1.57.28,4,4,0,0,1-2.17-.55,3.15,3.15,0,0,1-1.28-1.55,4.48,4.48,0,0,1-.29-1.75,4.36,4.36,0,0,1,.22-1.4A3.24,3.24,0,0,1,29.5,3a3.44,3.44,0,0,1,1.65.4,3.22,3.22,0,0,1,1.18,1.11,3.91,3.91,0,0,1,.6,1.6A5.32,5.32,0,0,1,33,7.17ZM28.53,5.64a1.63,1.63,0,0,0-.07.3s0,.07.06.07h2s0,0,0-.06a1.19,1.19,0,0,0,0-.28,1,1,0,0,0-.36-.53A1.11,1.11,0,0,0,29.5,5,.93.93,0,0,0,28.53,5.64Z"/><path d="M33.73,10.27a.16.16,0,0,1,0-.12V.69a.15.15,0,0,1,.16-.17h2a.13.13,0,0,1,.12,0,.17.17,0,0,1,0,.12v9.46a.17.17,0,0,1-.17.17h-2A.21.21,0,0,1,33.73,10.27Z"/><path d="M4.63,14.09A.17.17,0,0,1,4.75,14h2a.17.17,0,0,1,.17.17v6.26a3.21,3.21,0,0,1-1.1,2.74A4.58,4.58,0,0,1,3,24a8.94,8.94,0,0,1-1.33-.11c-.1,0-.14-.07-.14-.19L1.6,22c0-.07,0-.11,0-.13a.14.14,0,0,1,.14,0A5.23,5.23,0,0,0,2.86,22a2,2,0,0,0,1.26-.36,1.39,1.39,0,0,0,.46-1.15l-.1.1A2,2,0,0,1,3,21.09a3.58,3.58,0,0,1-1.69-.41A2.39,2.39,0,0,1,.22,19.25,5.27,5.27,0,0,1,0,17.6a4.82,4.82,0,0,1,.27-1.76,2.88,2.88,0,0,1,1-1.39,2.7,2.7,0,0,1,1.65-.52,2,2,0,0,1,1.55.62.07.07,0,0,0,.06,0,0,0,0,0,0,0-.05v-.31A.13.13,0,0,1,4.63,14.09Zm0,3.5a4.64,4.64,0,0,0,0-.6,1.91,1.91,0,0,0-.11-.41,1.07,1.07,0,0,0-.36-.49,1,1,0,0,0-.59-.17,1,1,0,0,0-.94.66,2.16,2.16,0,0,0-.21,1,2.14,2.14,0,0,0,.18,1,1.06,1.06,0,0,0,.38.48,1,1,0,0,0,.6.18.93.93,0,0,0,1-.64A3,3,0,0,0,4.58,17.59Z"/><path d="M12.68,14.25a3,3,0,0,1,1.19.86,1.94,1.94,0,0,1,.43,1.23v4.77a.17.17,0,0,1-.17.17h-2a.17.17,0,0,1-.12-.05.13.13,0,0,1,0-.12v-.49s0-.06,0-.06,0,0-.06.05a2,2,0,0,1-1.82.78,2.79,2.79,0,0,1-1.78-.52,1.84,1.84,0,0,1-.67-1.55,2,2,0,0,1,.75-1.66,3.43,3.43,0,0,1,2.18-.59h1.36A.07.07,0,0,0,12,17v-.27a.75.75,0,0,0-.25-.59,1,1,0,0,0-.71-.22,1.21,1.21,0,0,0-.58.13.6.6,0,0,0-.31.32c-.05.1-.11.15-.2.14l-2-.27c-.11,0-.17-.06-.17-.12A2,2,0,0,1,8.23,15a2.93,2.93,0,0,1,1.15-.78,4.34,4.34,0,0,1,1.6-.29A4.4,4.4,0,0,1,12.68,14.25Zm-1,5.2a.87.87,0,0,0,.35-.72V18.4a.06.06,0,0,0-.07-.07h-.84a1.53,1.53,0,0,0-.82.18.6.6,0,0,0-.29.54.64.64,0,0,0,.21.5.89.89,0,0,0,.59.18A1.3,1.3,0,0,0,11.63,19.45Zm-1.56-6.32s0-.08,0-.14l.73-1.38a.19.19,0,0,1,.2-.13h1.73c.09,0,.14,0,.14.1a.25.25,0,0,1-.05.11l-1,1.4a.21.21,0,0,1-.19.1H10.2C10.13,13.19,10.09,13.17,10.07,13.13Z"/><path d="M15.45,21.23a.17.17,0,0,1,0-.12V11.65a.17.17,0,0,1,0-.12.21.21,0,0,1,.12,0h2a.17.17,0,0,1,.17.17v9.46a.17.17,0,0,1-.17.17h-2A.21.21,0,0,1,15.45,21.23Z"/><path d="M19.13,13.06a1.18,1.18,0,0,1-.34-.88,1.17,1.17,0,0,1,.34-.88,1.3,1.3,0,0,1,1.75,0,1.3,1.3,0,0,1,0,1.75,1.18,1.18,0,0,1-.87.35A1.22,1.22,0,0,1,19.13,13.06Zm-.25,8.17a.17.17,0,0,1-.05-.12v-6.9A.17.17,0,0,1,19,14h2a.21.21,0,0,1,.12.05.16.16,0,0,1,0,.12v6.9a.16.16,0,0,1,0,.12.21.21,0,0,1-.12.05H19A.17.17,0,0,1,18.88,21.23Z"/><path d="M23.42,21.12a2.48,2.48,0,0,1-1.14-.77,1.74,1.74,0,0,1-.4-1.14v-.16a.15.15,0,0,1,0-.11.16.16,0,0,1,.12-.05h1.89a.13.13,0,0,1,.12.05.13.13,0,0,1,.05.11.52.52,0,0,0,.3.45,1.47,1.47,0,0,0,.74.17,1.22,1.22,0,0,0,.62-.13.41.41,0,0,0,.23-.36.35.35,0,0,0-.24-.33,3.83,3.83,0,0,0-.79-.2,6.57,6.57,0,0,1-1.43-.41,3.2,3.2,0,0,1-1.14-.73A1.7,1.7,0,0,1,22,16.3a2.06,2.06,0,0,1,.85-1.73,3.58,3.58,0,0,1,2.23-.64,4.19,4.19,0,0,1,1.65.3,2.57,2.57,0,0,1,1.1.85,2.1,2.1,0,0,1,.39,1.26.17.17,0,0,1-.17.17H26.19a.17.17,0,0,1-.17-.17.49.49,0,0,0-.25-.43,1.18,1.18,0,0,0-.69-.17,1.35,1.35,0,0,0-.64.13.41.41,0,0,0-.24.37.35.35,0,0,0,.27.34,6,6,0,0,0,.89.24c.54.11.92.2,1.14.26a3.42,3.42,0,0,1,1.35.76,1.7,1.7,0,0,1,.48,1.27,2,2,0,0,1-.86,1.69,4.09,4.09,0,0,1-2.32.59A5,5,0,0,1,23.42,21.12Z"/><path d="M6.87.57a.16.16,0,0,0-.12,0h-2a.13.13,0,0,0-.12,0,.17.17,0,0,0,0,.12V3.6h0s0,0,0,0,0,0,0,0h0A2,2,0,0,0,3,3a2.67,2.67,0,0,0-1.64.52,2.92,2.92,0,0,0-1,1.38A4.92,4.92,0,0,0,0,6.68,5.25,5.25,0,0,0,.24,8.33a2.34,2.34,0,0,0,1.1,1.43,3.61,3.61,0,0,0,1.7.4,1.94,1.94,0,0,0,1.45-.5l.1-.1v.59a.17.17,0,0,0,.17.17h2a.18.18,0,0,0,.12-.05.17.17,0,0,0,0-.12V.69A.17.17,0,0,0,6.87.57ZM4.59,6.76a3.32,3.32,0,0,1-.12,1,1,1,0,0,1-.24.37.89.89,0,0,1-.73.36,1,1,0,0,1-.88-.53,1,1,0,0,1-.06-.16l0,0a2.14,2.14,0,0,1-.18-1A2.71,2.71,0,0,1,2.44,6a.29.29,0,0,1,0-.1,1.58,1.58,0,0,1,.09-.26l0-.06a.84.84,0,0,1,.06-.14A.9.9,0,0,1,3.5,5a.87.87,0,0,1,.59.21h0l.1.1a.84.84,0,0,1,.25.38,1.19,1.19,0,0,1,.11.41,4.47,4.47,0,0,1,0,.59v.1Z"/></g></g></svg>