<svg xmlns="http://www.w3.org/2000/svg" viewBox="0 0 12.88 23.52"><g id="Layer_2" data-name="Layer 2"><g id="Layer_1-2" data-name="Layer 1"><path d="M12,19.19l-1.23-.9h1.82a.3.3,0,0,0,.22-.09.26.26,0,0,0,.09-.22V.31a.31.31,0,0,0-.09-.22A.29.29,0,0,0,12.57,0H8.86a.29.29,0,0,0-.22.09.31.31,0,0,0-.09.22V5.75a.08.08,0,0,1-.06.09.09.09,0,0,1-.1,0,3.7,3.7,0,0,0-2.9-1.15,5.08,5.08,0,0,0-3.07,1A5.47,5.47,0,0,0,.5,8.21,9,9,0,0,0,0,11.5a9.75,9.75,0,0,0,.42,3.08,4.34,4.34,0,0,0,2.06,2.67A6.76,6.76,0,0,0,5.64,18a3.71,3.71,0,0,0,2.72-.94l.19-.19A2.57,2.57,0,0,1,7.68,19a3.71,3.71,0,0,1-2.35.68,9,9,0,0,1-2-.24.35.35,0,0,0-.27,0,.28.28,0,0,0-.1.25L2.85,23c0,.21.08.32.26.34a15.66,15.66,0,0,0,2.48.21A8.48,8.48,0,0,0,10.82,22a4.64,4.64,0,0,0,1.58-2.21C12.47,19.6,12.49,19.53,12,19.19ZM8.31,13.43a1.74,1.74,0,0,1-1.78,1.21,1.91,1.91,0,0,1-1.12-.34,2.22,2.22,0,0,1-.71-.89,4.06,4.06,0,0,1-.34-1.88,4.12,4.12,0,0,1,.4-1.94A1.79,1.79,0,0,1,6.51,8.36a1.87,1.87,0,0,1,1.11.33,1.9,1.9,0,0,1,.66.9,2.59,2.59,0,0,1,.21.77,8,8,0,0,1,.06,1.11A5.73,5.73,0,0,1,8.31,13.43Z"/></g></g></svg>