<svg xmlns="http://www.w3.org/2000/svg" viewBox="0 0 42.66 24.04"><g id="Layer_2" data-name="Layer 2"><g id="Layer_1-2" data-name="Layer 1"><path d="M12,19.71l-1.23-.9h1.82a.3.3,0,0,0,.22-.09.27.27,0,0,0,.09-.22V.83a.31.31,0,0,0-.31-.31H8.86a.31.31,0,0,0-.31.31V6.27a.08.08,0,0,1-.06.09.09.09,0,0,1-.1,0,3.67,3.67,0,0,0-2.9-1.15,5,5,0,0,0-3.07,1A5.47,5.47,0,0,0,.5,8.73,9,9,0,0,0,0,12,9.75,9.75,0,0,0,.42,15.1a4.37,4.37,0,0,0,2.06,2.67,6.76,6.76,0,0,0,3.16.76,3.67,3.67,0,0,0,2.72-1l.19-.18a2.54,2.54,0,0,1-.87,2.14,3.65,3.65,0,0,1-2.35.68,9,9,0,0,1-2-.23.31.31,0,0,0-.27,0,.27.27,0,0,0-.1.25l-.13,3.24c0,.21.08.32.26.34A15.66,15.66,0,0,0,5.59,24a8.48,8.48,0,0,0,5.23-1.54,4.69,4.69,0,0,0,1.58-2.21C12.47,20.12,12.49,20.05,12,19.71ZM8.31,14a1.73,1.73,0,0,1-1.78,1.2,1.84,1.84,0,0,1-1.12-.34,2.12,2.12,0,0,1-.71-.88A4.08,4.08,0,0,1,4.36,12a4.1,4.1,0,0,1,.4-1.93A1.79,1.79,0,0,1,6.51,8.88a1.87,1.87,0,0,1,1.11.33,1.9,1.9,0,0,1,.66.9,2.51,2.51,0,0,1,.21.77A8,8,0,0,1,8.55,12,5.73,5.73,0,0,1,8.31,14Z"/><path d="M19.33,3.28a2.91,2.91,0,0,1,1.19.87A1.94,1.94,0,0,1,21,5.38v4.77a.17.17,0,0,1-.17.17h-2a.16.16,0,0,1-.11-.05.13.13,0,0,1-.05-.12V9.66s0-.06,0-.06,0,0-.06.05a2,2,0,0,1-1.82.78,2.79,2.79,0,0,1-1.78-.53,1.82,1.82,0,0,1-.67-1.54A2,2,0,0,1,15,6.69,3.49,3.49,0,0,1,17.2,6.1h1.36A.06.06,0,0,0,18.63,6V5.77a.76.76,0,0,0-.26-.6,1,1,0,0,0-.7-.21,1.34,1.34,0,0,0-.58.12.64.64,0,0,0-.31.32c-.05.11-.11.15-.2.14l-2-.26c-.12,0-.17-.06-.17-.13A1.91,1.91,0,0,1,14.88,4,3.06,3.06,0,0,1,16,3.25,4.3,4.3,0,0,1,17.63,3,4.4,4.4,0,0,1,19.33,3.28Zm-1,5.21a.87.87,0,0,0,.35-.72V7.43a.07.07,0,0,0-.07-.07h-.84a1.44,1.44,0,0,0-.82.19.6.6,0,0,0-.29.54.61.61,0,0,0,.21.49.89.89,0,0,0,.59.18A1.37,1.37,0,0,0,18.28,8.49Z"/><path d="M27.92,3.66a2.51,2.51,0,0,1,.7,1.88v4.61a.17.17,0,0,1-.17.17h-2a.21.21,0,0,1-.12-.05.16.16,0,0,1,0-.12V6.05A1.17,1.17,0,0,0,26,5.26a1,1,0,0,0-1.39,0,1.17,1.17,0,0,0-.26.79v4.1a.17.17,0,0,1-.17.17h-2a.17.17,0,0,1-.17-.17V3.25a.17.17,0,0,1,.17-.17h2a.17.17,0,0,1,.17.17v.52s0,0,0,.06,0,0,.05,0A1.84,1.84,0,0,1,26.13,3,2.44,2.44,0,0,1,27.92,3.66Z"/><path d="M30,2.09a1.18,1.18,0,0,1-.34-.87A1.15,1.15,0,0,1,30,.34a1.3,1.3,0,0,1,1.75,0,1.15,1.15,0,0,1,.34.88,1.21,1.21,0,0,1-.34.87,1.27,1.27,0,0,1-1.75,0Zm-.25,8.18a.17.17,0,0,1-.05-.12V3.25a.17.17,0,0,1,.17-.17h2a.21.21,0,0,1,.12,0,.16.16,0,0,1,0,.12v6.9a.16.16,0,0,1,0,.12.21.21,0,0,1-.12.05h-2A.17.17,0,0,1,29.77,10.27Z"/><path d="M39.62,7.17a.17.17,0,0,1-.18.17H35.17a.07.07,0,0,0-.06,0s0,0,0,0a1.75,1.75,0,0,0,.14.4,1.22,1.22,0,0,0,.5.48,1.76,1.76,0,0,0,.83.18A1.73,1.73,0,0,0,38,7.9a.16.16,0,0,1,.13-.07.12.12,0,0,1,.11,0l1.08,1.23a.14.14,0,0,1,.06.12.17.17,0,0,1-.06.11,3.31,3.31,0,0,1-1.21.81,4.27,4.27,0,0,1-1.58.28,4,4,0,0,1-2.16-.55A3.15,3.15,0,0,1,33,8.33a4.48,4.48,0,0,1-.29-1.75A4.36,4.36,0,0,1,33,5.18,3.24,3.24,0,0,1,36.15,3a3.44,3.44,0,0,1,1.65.4A3.22,3.22,0,0,1,39,4.46a4.06,4.06,0,0,1,.6,1.6A5.32,5.32,0,0,1,39.62,7.17ZM35.18,5.64a1.63,1.63,0,0,0-.07.3s0,.07.06.07h2s.05,0,.05-.06a1.19,1.19,0,0,0-.05-.28,1,1,0,0,0-.36-.53A1.11,1.11,0,0,0,36.15,5,.93.93,0,0,0,35.18,5.64Z"/><path d="M40.38,10.27a.16.16,0,0,1,0-.12V.69A.15.15,0,0,1,40.5.52h2a.13.13,0,0,1,.12,0,.17.17,0,0,1,0,.12v9.46a.17.17,0,0,1-.17.17h-2A.21.21,0,0,1,40.38,10.27Z"/><path d="M19.33,14.25a3,3,0,0,1,1.19.86A1.94,1.94,0,0,1,21,16.34v4.77a.17.17,0,0,1-.17.17h-2a.16.16,0,0,1-.11-.05.13.13,0,0,1-.05-.12v-.49s0-.06,0-.06,0,0-.06.05a2,2,0,0,1-1.82.78,2.79,2.79,0,0,1-1.78-.52,1.84,1.84,0,0,1-.67-1.55A2,2,0,0,1,15,17.66a3.43,3.43,0,0,1,2.18-.59h1.36a.07.07,0,0,0,.07-.07v-.27a.73.73,0,0,0-.26-.59,1,1,0,0,0-.7-.22,1.21,1.21,0,0,0-.58.13.57.57,0,0,0-.31.32c-.05.1-.11.15-.2.14l-2-.27c-.12,0-.17-.06-.17-.12A2,2,0,0,1,14.88,15,2.93,2.93,0,0,1,16,14.22a4.3,4.3,0,0,1,1.6-.29A4.4,4.4,0,0,1,19.33,14.25Zm-1,5.2a.87.87,0,0,0,.35-.72V18.4a.06.06,0,0,0-.07-.07h-.84a1.53,1.53,0,0,0-.82.18.6.6,0,0,0-.29.54.64.64,0,0,0,.21.5.89.89,0,0,0,.59.18A1.32,1.32,0,0,0,18.28,19.45Zm-1.56-6.32s0-.08,0-.14l.72-1.38a.21.21,0,0,1,.21-.13H19.4c.09,0,.14,0,.14.1a.25.25,0,0,1-.05.11l-1,1.4a.21.21,0,0,1-.19.1H16.85C16.78,13.19,16.74,13.17,16.72,13.13Z"/><path d="M22.1,21.23a.17.17,0,0,1-.05-.12V11.65a.17.17,0,0,1,.05-.12.18.18,0,0,1,.12,0h2a.17.17,0,0,1,.17.17v9.46a.17.17,0,0,1-.17.17h-2A.18.18,0,0,1,22.1,21.23Z"/><path d="M25.78,13.06a1.18,1.18,0,0,1-.34-.88,1.17,1.17,0,0,1,.34-.88,1.3,1.3,0,0,1,1.75,0,1.3,1.3,0,0,1,0,1.75,1.18,1.18,0,0,1-.87.35A1.22,1.22,0,0,1,25.78,13.06Zm-.25,8.17a.17.17,0,0,1-.05-.12v-6.9a.17.17,0,0,1,.17-.17h2a.21.21,0,0,1,.12.05.16.16,0,0,1,0,.12v6.9a.16.16,0,0,1,0,.12.21.21,0,0,1-.12.05h-2A.17.17,0,0,1,25.53,21.23Z"/><path d="M30.07,21.12a2.57,2.57,0,0,1-1.15-.77,1.8,1.8,0,0,1-.4-1.14v-.16a.16.16,0,0,1,.05-.11.16.16,0,0,1,.12-.05h1.89a.13.13,0,0,1,.12.05.16.16,0,0,1,.05.11.52.52,0,0,0,.3.45,1.47,1.47,0,0,0,.74.17,1.22,1.22,0,0,0,.62-.13.41.41,0,0,0,.23-.36.35.35,0,0,0-.24-.33,3.83,3.83,0,0,0-.79-.2,6.57,6.57,0,0,1-1.43-.41A3.2,3.2,0,0,1,29,17.51a1.7,1.7,0,0,1-.42-1.21,2,2,0,0,1,.85-1.73,3.58,3.58,0,0,1,2.23-.64,4.19,4.19,0,0,1,1.65.3,2.57,2.57,0,0,1,1.1.85,2.1,2.1,0,0,1,.39,1.26.17.17,0,0,1-.17.17H32.84a.17.17,0,0,1-.17-.17.51.51,0,0,0-.25-.43,1.18,1.18,0,0,0-.69-.17,1.35,1.35,0,0,0-.64.13.41.41,0,0,0-.24.37.36.36,0,0,0,.26.34,6.56,6.56,0,0,0,.9.24c.54.11.92.2,1.14.26a3.49,3.49,0,0,1,1.35.76A1.7,1.7,0,0,1,35,19.11a2,2,0,0,1-.86,1.69,4.09,4.09,0,0,1-2.32.59A5,5,0,0,1,30.07,21.12Z"/></g></g></svg>