<svg xmlns="http://www.w3.org/2000/svg" viewBox="0 0 206.48 289.73"><defs><style>.cls-1{fill:#0094c0;}.cls-2{fill:#1f1f1f;}.cls-3{fill:#f0532c;}.cls-4{fill:#f0522e;}</style></defs><g id="Layer_2" data-name="Layer 2"><g id="Layer_1-2" data-name="Layer 1"><path class="cls-1" d="M162.8,221.3A24.74,24.74,0,1,1,138.06,246,24.77,24.77,0,0,1,162.8,221.3m0-18.94A43.69,43.69,0,1,0,206.48,246a43.69,43.69,0,0,0-43.68-43.68Z"/><rect class="cls-2" x="187.54" y="112.03" width="18.94" height="81.86"/><path class="cls-2" d="M0,112H18.91v4.5a45,45,0,0,1,9.1-4.75,29.63,29.63,0,0,1,10.57-2q13.86,0,21.93,12.1,8.91-12.1,24.12-12.1,27.66,0,27.66,33.54v14.6h-19v-9.48q0-11.76-2.86-16.64t-9.66-5q-7.81,0-11.39,5.89t-3.57,18.91v42.27h-19V148.67q0-21.84-12.6-21.85-8,0-11.64,6t-3.66,18.83v42.27H0Z"/><path class="cls-2" d="M163.25,127.54A24.29,24.29,0,1,1,139,151.83a24.32,24.32,0,0,1,24.28-24.29m0-18.94a43.23,43.23,0,1,0,43.23,43.23,43.23,43.23,0,0,0-43.23-43.23Z"/><path class="cls-2" d="M69.06,221.76A24.29,24.29,0,1,1,44.77,246a24.3,24.3,0,0,1,24.29-24.28m0-18.95A43.23,43.23,0,1,0,112.29,246a43.23,43.23,0,0,0-43.23-43.23Z"/><rect class="cls-2" x="93.29" y="167.42" width="18.94" height="120.69"/><rect class="cls-2" x="93.29" y="43.6" width="18.94" height="55.63"/><rect class="cls-2" x="93.29" y="0.37" width="18.94" height="43.23"/><rect class="cls-2" x="81.15" y="12.51" width="43.23" height="18.94"/><circle class="cls-3" cx="163.25" cy="57.16" r="35.47"/><path class="cls-4" d="M163.25,29.46a27.7,27.7,0,1,1-27.7,27.7,27.73,27.73,0,0,1,27.7-27.7m0-15.53a43.23,43.23,0,1,0,43.23,43.23,43.24,43.24,0,0,0-43.23-43.23Z"/><rect class="cls-2" x="153.78" y="0.37" width="18.94" height="43.23" transform="translate(32.27 121.87) rotate(-45)"/><rect class="cls-2" x="141.64" y="12.51" width="43.23" height="18.94" transform="translate(32.27 121.87) rotate(-45)"/></g></g></svg>