<svg xmlns="http://www.w3.org/2000/svg" viewBox="0 0 388.95 78.45"><defs><style>.cls-1{fill:#010101;}.cls-2{fill:#231f20;}</style></defs><g id="Layer_2" data-name="Layer 2"><g id="uhlisko"><rect class="cls-1" x="128.01" y="61.87" width="48.01" height="16"/><polygon class="cls-1" points="291.2 71.73 291.47 45.75 318.94 0.24 334.93 0.26 291.2 71.73"/><polygon class="cls-1" points="291.2 6.38 291.47 32.36 318.94 77.87 334.93 77.85 291.2 6.38"/><rect class="cls-1" x="287.96" y="0.24" width="16" height="77.63"/><path class="cls-1" d="M249.35,47.13c-2,0-10.72-.37-17.2-6.69-3-2.93-6.58-8.25-6.58-17s3.62-14,6.65-16.92C238.81.3,247.72.2,249.62.25h22.21v16H249.07c-.92,0-4.15.28-5.87,2-.4.4-1.63,1.59-1.63,5.28,0,4.25,1.58,5.66,3.12,6.48a11.26,11.26,0,0,0,4.66,1.17l15.53,6.68v9.32H249.35Z"/><path class="cls-1" d="M249.16,78H226.42V62h22.77c.92,0,4.14-.28,5.86-2,.41-.39,1.63-1.58,1.63-5.27,0-4.25-1.57-5.66-3.12-6.48a11.26,11.26,0,0,0-4.66-1.17l-15.53-7.6v-8.4h15.37c1.57,0,10.68.17,17.36,6.69,3,2.93,6.58,8.25,6.58,17s-3.61,14-6.65,16.91C259.92,77.51,251.82,78,249.16,78Z"/><rect class="cls-1" x="48.01" y="0.26" width="16" height="38.81"/><rect class="cls-1" x="128.01" y="0.26" width="16" height="77.61"/><rect class="cls-1" x="192.02" y="0.24" width="16" height="77.63"/><path class="cls-2" d="M112,.26H96V39.07H64v38.8H80v-15a11.33,11.33,0,0,1,1.17-4.67c.82-1.54,2.78-3.11,7-3.11,3.68,0,5.43,1.22,5.82,1.63,1.68,1.72,2,5,2,5.86V77.87h16Z"/><path class="cls-1" d="M388.94,24c.06-1.9-.05-10.8-6.31-17.39-2.88-3-8.16-6.65-16.91-6.65s-14,3.58-17,6.58c-6.53,6.68-6.71,15.8-6.7,17.36V39.31h0v15c-.05,1.9.05,10.8,6.32,17.39,2.88,3,8.15,6.65,16.91,6.65s14-3.57,17-6.57C388.78,65.14,389,56,389,54.46V39.1h0ZM373,38.89H358.06V23.78a11.42,11.42,0,0,1,1.17-4.66c.82-1.54,2.23-3.12,6.49-3.12,3.68,0,4.88,1.22,5.27,1.63,1.68,1.72,2,5,2,5.87Z"/><path class="cls-1" d="M16,53.36V48.59H48V43.83H16V39.07h0V.26H0V54.41C0,56.31.06,65.21,6.32,71.8c2.89,3,8.16,6.65,16.92,6.65,8.3,0,14.53-3.13,17.63-6H23.15c-.15-.15-.32-.29-.46-.44a21.88,21.88,0,0,1-3.25-4.33H44.57a24.69,24.69,0,0,0,2.11-4.79H17.34a28.18,28.18,0,0,1-1.09-4.76H47.76A23.43,23.43,0,0,0,48,54.64V53.36Z"/></g></g></svg>