<svg xmlns="http://www.w3.org/2000/svg" viewBox="0 0 88.61 108.87"><defs><style>.cls-1{fill:#2c8858;}</style></defs><g id="Layer_2" data-name="Layer 2"><g id="Layer_1-2" data-name="Layer 1"><path class="cls-1" d="M30,59.25a22.49,22.49,0,0,1-15.9-38.4A22.54,22.54,0,0,1,24.22,15l1.19,4.46A17.88,17.88,0,1,0,42.67,49.4l3.27,3.26A22.35,22.35,0,0,1,30,59.25Z"/><path class="cls-1" d="M44.31,73.51A22.5,22.5,0,0,1,22.58,56.85L27,55.66a17.87,17.87,0,1,0,29.9-17.27l3.27-3.26a22.48,22.48,0,0,1-15.9,38.38Z"/><path class="cls-1" d="M64.4,58.49,63.21,54A17.9,17.9,0,0,0,76.45,36.76,17.9,17.9,0,0,0,63.21,19.49a18,18,0,0,0-9.27,0,17.74,17.74,0,0,0-8,4.63l-3.27-3.27a22.48,22.48,0,0,1,31.8,0A22.51,22.51,0,0,1,64.4,58.49Z"/><path class="cls-1" d="M28.41,38.39A22.5,22.5,0,0,1,38.48.76,22.49,22.49,0,0,1,66,16.66l-4.46,1.19a17.88,17.88,0,1,0-29.9,17.28Z"/><polygon class="cls-1" points="58.57 45.97 53.69 45.98 53.69 31.71 58.57 31.71 58.57 45.97"/><rect class="cls-1" x="53.69" y="31.71" width="14.27" height="5.05"/><rect class="cls-1" x="35.07" y="45.98" width="14.27" height="5.05"/><rect class="cls-1" x="44.29" y="45.98" width="5.05" height="14.27"/><rect class="cls-1" x="30.02" y="27.55" width="5.05" height="14.27"/><rect class="cls-1" x="20.8" y="36.77" width="14.27" height="5.05"/><rect class="cls-1" x="39.42" y="22.5" width="14.27" height="5.05"/><rect class="cls-1" x="39.42" y="13.28" width="5.05" height="14.27"/><path class="cls-1" d="M4.53,89.22,5,93.11l-.18-.32a8.72,8.72,0,0,1,3-3.26,7.9,7.9,0,0,1,4.3-1.17,8,8,0,0,1,2.85.47A5.38,5.38,0,0,1,17,90.24a4.47,4.47,0,0,1,1.06,2.28l-.18.14a8.31,8.31,0,0,1,3-3.17,7.52,7.52,0,0,1,4-1.13,6.23,6.23,0,0,1,4.44,1.58A5.62,5.62,0,0,1,31,94.11v14.67H26V96.1a4.8,4.8,0,0,0-.59-2.33,2.32,2.32,0,0,0-2-1,4.14,4.14,0,0,0-2.81,1,6.66,6.66,0,0,0-1.83,2.62A9.51,9.51,0,0,0,18,99.77v9H13V96.1a4.6,4.6,0,0,0-.63-2.33,2.48,2.48,0,0,0-2.09-1,4.1,4.1,0,0,0-2.76,1,6.48,6.48,0,0,0-1.79,2.62,9.77,9.77,0,0,0-.61,3.42v9H0V89.22Z"/><path class="cls-1" d="M41,108.78a11.41,11.41,0,0,1-4.15-.77,8.45,8.45,0,0,1-3.28-2.22l2.13-2.9a9.82,9.82,0,0,0,2.51,1.77,5.6,5.6,0,0,0,2.38.59,5.45,5.45,0,0,0,1.56-.21,2.27,2.27,0,0,0,1.11-.65,1.73,1.73,0,0,0,.41-1.18,1.79,1.79,0,0,0-.61-1.45,5.39,5.39,0,0,0-1.61-.84l-2.08-.7A7.57,7.57,0,0,1,35.68,98a5.38,5.38,0,0,1-1.22-3.49,5.93,5.93,0,0,1,3.1-5.14,8.07,8.07,0,0,1,4-.88,12.64,12.64,0,0,1,3.76.5,9.56,9.56,0,0,1,3,1.58l-2,3.08a6.11,6.11,0,0,0-1.92-1.22,6.27,6.27,0,0,0-2-.5,3.19,3.19,0,0,0-2.49.93,1.43,1.43,0,0,0-.4,1,1.64,1.64,0,0,0,.63,1.44,4.88,4.88,0,0,0,1.74.86c.71.22,1.4.44,2.07.69A10.33,10.33,0,0,1,46.48,98a5.17,5.17,0,0,1,1.7,1.72,4.8,4.8,0,0,1,.63,2.53,6.29,6.29,0,0,1-.86,3.22,6.38,6.38,0,0,1-2.56,2.42A9,9,0,0,1,41,108.78Z"/><path class="cls-1" d="M88.52,106.65a11,11,0,0,1-3.15,1.61,11.51,11.51,0,0,1-3.69.61,12.08,12.08,0,0,1-5.59-1.25,9,9,0,0,1-3.74-3.48A10.52,10.52,0,0,1,71,98.77a9.57,9.57,0,0,1,5.19-8.83,10.47,10.47,0,0,1,4.91-1.22,12.82,12.82,0,0,1,4.3.66,9.59,9.59,0,0,1,3.17,1.79l-2.44,3.3a10.36,10.36,0,0,0-1.93-1.11,6.33,6.33,0,0,0-2.65-.52,5,5,0,0,0-2.74.79,5.93,5.93,0,0,0-2,2.11,6.34,6.34,0,0,0,0,6A5.8,5.8,0,0,0,79,103.91a5.93,5.93,0,0,0,3.1.79,6,6,0,0,0,3.85-1.26Z"/><rect class="cls-1" x="57.39" y="89.22" width="5.07" height="19.15"/><polygon class="cls-1" points="65.48 84.82 59.93 76.04 54.37 84.82 65.48 84.82"/><polygon class="cls-1" points="68.26 89.22 51.59 89.22 48.81 93.61 59.93 93.61 71.04 93.61 68.26 89.22"/></g></g></svg>