<svg xmlns="http://www.w3.org/2000/svg" viewBox="0 0 141.37 45.06"><defs><style>.cls-1{fill:#2c8858;}</style></defs><g id="Layer_2" data-name="Layer 2"><g id="Layer_1-2" data-name="Layer 1"><path class="cls-1" d="M57.28,13.18l.46,3.89-.19-.31a8.74,8.74,0,0,1,3-3.26,8.55,8.55,0,0,1,7.16-.7,5.28,5.28,0,0,1,2.06,1.4,4.39,4.39,0,0,1,1.06,2.29l-.18.13a8.46,8.46,0,0,1,3-3.17,7.58,7.58,0,0,1,4-1.13,6.15,6.15,0,0,1,4.43,1.59,5.58,5.58,0,0,1,1.72,4.16V32.74h-5V20.06a4.91,4.91,0,0,0-.59-2.33,2.33,2.33,0,0,0-2-1,4.17,4.17,0,0,0-2.81,1,6.91,6.91,0,0,0-1.83,2.63,9.4,9.4,0,0,0-.7,3.37v9H65.71V20.06a4.6,4.6,0,0,0-.64-2.33,2.46,2.46,0,0,0-2.08-1,4.06,4.06,0,0,0-2.76,1,6.42,6.42,0,0,0-1.79,2.63,9.47,9.47,0,0,0-.61,3.42v9H52.75V13.18Z"/><path class="cls-1" d="M93.78,32.74A11.31,11.31,0,0,1,89.64,32a8.48,8.48,0,0,1-3.29-2.22l2.13-2.89A10.39,10.39,0,0,0,91,28.62a5.67,5.67,0,0,0,2.38.59,5.73,5.73,0,0,0,1.56-.2A2.36,2.36,0,0,0,96,28.35a1.65,1.65,0,0,0,.41-1.18,1.77,1.77,0,0,0-.61-1.45,5.05,5.05,0,0,0-1.61-.83l-2.08-.71a7.42,7.42,0,0,1-3.71-2.26,5.33,5.33,0,0,1-1.23-3.49A5.93,5.93,0,0,1,88,15.58a5.87,5.87,0,0,1,2.34-2.29,8,8,0,0,1,4-.88,12.92,12.92,0,0,1,3.76.5,9.5,9.5,0,0,1,3,1.58l-2,3.08a6.76,6.76,0,0,0-3.94-1.72,3.21,3.21,0,0,0-1.45.23,3,3,0,0,0-1,.7,1.45,1.45,0,0,0-.41,1A1.67,1.67,0,0,0,93,19.25a5.2,5.2,0,0,0,1.75.86c.71.21,1.39.44,2.06.68a10.62,10.62,0,0,1,2.47,1.13,5.47,5.47,0,0,1,1.7,1.72,4.81,4.81,0,0,1,.63,2.54,6.38,6.38,0,0,1-.86,3.21,6.31,6.31,0,0,1-2.56,2.42A9,9,0,0,1,93.78,32.74Z"/><path class="cls-1" d="M141.27,30.61a10.67,10.67,0,0,1-3.14,1.61,11.51,11.51,0,0,1-3.69.61,12,12,0,0,1-5.59-1.24,9,9,0,0,1-3.74-3.49,10.38,10.38,0,0,1-1.31-5.37A9.51,9.51,0,0,1,129,13.91a10.39,10.39,0,0,1,4.91-1.23,12.88,12.88,0,0,1,4.31.66,9.88,9.88,0,0,1,3.17,1.79l-2.45,3.3A9.93,9.93,0,0,0,137,17.32a6.52,6.52,0,0,0-2.65-.52,5,5,0,0,0-2.74.8,5.74,5.74,0,0,0-2,2.1,6,6,0,0,0-.75,3,5.87,5.87,0,0,0,.77,3,5.63,5.63,0,0,0,2.1,2.15,6,6,0,0,0,3.1.8,6.43,6.43,0,0,0,2.13-.34,6.33,6.33,0,0,0,1.72-.93Z"/><rect class="cls-1" x="110.15" y="13.18" width="5.07" height="19.15"/><polygon class="cls-1" points="118.24 8.79 112.68 0 107.13 8.79 118.24 8.79"/><polygon class="cls-1" points="121.02 13.18 104.35 13.18 101.57 17.57 112.68 17.57 123.8 17.57 121.02 13.18"/><path class="cls-1" d="M13.78,36.32A13.79,13.79,0,0,1,4,12.78a13.87,13.87,0,0,1,6.18-3.57L11,12A11,11,0,1,0,21.53,30.28l2,2A13.7,13.7,0,0,1,13.78,36.32Z"/><path class="cls-1" d="M22.53,45.06A13.78,13.78,0,0,1,9.21,34.85L12,34.12A11,11,0,1,0,30.28,23.53l2-2a13.78,13.78,0,0,1-9.75,23.53Z"/><path class="cls-1" d="M34.85,35.85l-.73-2.73A11,11,0,1,0,23.53,14.78l-2-2a13.77,13.77,0,0,1,19.49,0,13.8,13.8,0,0,1-6.17,23.07Z"/><path class="cls-1" d="M12.78,23.53a13.81,13.81,0,0,1,0-19.5,13.78,13.78,0,0,1,19.5,0,14,14,0,0,1,3.57,6.18l-2.74.73A11,11,0,1,0,14.78,21.53Z"/><polygon class="cls-1" points="31.27 28.18 28.29 28.18 28.29 19.44 31.27 19.44 31.27 28.18"/><rect class="cls-1" x="28.28" y="19.44" width="8.75" height="3.1"/><rect class="cls-1" x="16.87" y="28.18" width="8.75" height="3.1"/><rect class="cls-1" x="22.52" y="28.18" width="3.1" height="8.75"/><rect class="cls-1" x="13.77" y="16.89" width="3.1" height="8.75"/><rect class="cls-1" x="8.12" y="22.54" width="8.75" height="3.1"/><rect class="cls-1" x="19.54" y="13.79" width="8.75" height="3.1"/><rect class="cls-1" x="19.54" y="8.14" width="3.1" height="8.75"/></g></g></svg>