<svg xmlns="http://www.w3.org/2000/svg" viewBox="0 0 88.61 32.83"><defs><style>.cls-1{fill:#231f20;}</style></defs><g id="Layer_2" data-name="Layer 2"><g id="Layer_1-2" data-name="Layer 1"><path class="cls-1" d="M4.53,13.18,5,17.07l-.18-.31a8.58,8.58,0,0,1,3-3.26,7.82,7.82,0,0,1,4.3-1.18,7.73,7.73,0,0,1,2.85.48A5.25,5.25,0,0,1,17,14.2a4.47,4.47,0,0,1,1.06,2.29l-.18.13a8.38,8.38,0,0,1,3-3.17,7.52,7.52,0,0,1,4-1.13,6.19,6.19,0,0,1,4.44,1.59A5.58,5.58,0,0,1,31,18.07V32.74H26V20.06a4.8,4.8,0,0,0-.59-2.33,2.32,2.32,0,0,0-2-1,4.14,4.14,0,0,0-2.81,1,6.7,6.7,0,0,0-1.83,2.63A9.41,9.41,0,0,0,18,23.73v9H13V20.06a4.6,4.6,0,0,0-.63-2.33,2.48,2.48,0,0,0-2.09-1,4.1,4.1,0,0,0-2.76,1,6.52,6.52,0,0,0-1.79,2.63,9.69,9.69,0,0,0-.61,3.42v9H0V13.18Z"/><path class="cls-1" d="M41,32.74A11.41,11.41,0,0,1,36.88,32a8.45,8.45,0,0,1-3.28-2.22l2.13-2.89a10,10,0,0,0,2.51,1.76,5.6,5.6,0,0,0,2.38.59,5.84,5.84,0,0,0,1.56-.2,2.36,2.36,0,0,0,1.11-.66,1.69,1.69,0,0,0,.41-1.18,1.8,1.8,0,0,0-.61-1.45,5.16,5.16,0,0,0-1.61-.83l-2.08-.71a7.5,7.5,0,0,1-3.72-2.26,5.38,5.38,0,0,1-1.22-3.49,5.93,5.93,0,0,1,.77-2.85,5.84,5.84,0,0,1,2.33-2.29,8.07,8.07,0,0,1,4-.88,13,13,0,0,1,3.76.5,9.56,9.56,0,0,1,3,1.58l-2,3.08a6.11,6.11,0,0,0-1.92-1.22,6.27,6.27,0,0,0-2-.5,3.17,3.17,0,0,0-1.44.23,3.07,3.07,0,0,0-1.05.7,1.44,1.44,0,0,0-.4,1,1.67,1.67,0,0,0,.63,1.45,5.06,5.06,0,0,0,1.74.86c.71.21,1.4.44,2.07.68a10.74,10.74,0,0,1,2.46,1.13,5.27,5.27,0,0,1,1.7,1.72,4.81,4.81,0,0,1,.63,2.54,6.28,6.28,0,0,1-3.42,5.63A9,9,0,0,1,41,32.74Z"/><path class="cls-1" d="M88.52,30.61a10.73,10.73,0,0,1-3.15,1.61,11.51,11.51,0,0,1-3.69.61,12.08,12.08,0,0,1-5.59-1.24,9.08,9.08,0,0,1-3.74-3.49A10.47,10.47,0,0,1,71,22.73a9.54,9.54,0,0,1,5.19-8.82,10.36,10.36,0,0,1,4.91-1.23,12.82,12.82,0,0,1,4.3.66,9.77,9.77,0,0,1,3.17,1.79l-2.44,3.3a10.36,10.36,0,0,0-1.93-1.11,6.49,6.49,0,0,0-2.65-.52,5,5,0,0,0-2.74.8,5.82,5.82,0,0,0-2,2.1,6.34,6.34,0,0,0,0,6A5.73,5.73,0,0,0,79,27.87a5.94,5.94,0,0,0,3.1.8,6.12,6.12,0,0,0,3.85-1.27Z"/><rect class="cls-1" x="57.39" y="13.18" width="5.07" height="19.15"/><polygon class="cls-1" points="65.48 8.79 59.93 0 54.37 8.79 65.48 8.79"/><polygon class="cls-1" points="68.26 13.18 51.59 13.18 48.81 17.57 59.93 17.57 71.04 17.57 68.26 13.18"/></g></g></svg>