<svg xmlns="http://www.w3.org/2000/svg" viewBox="0 0 184.25 106.38"><defs><style>.cls-1{fill:#231f20;}</style></defs><g id="Layer_2" data-name="Layer 2"><g id="Layer_1-2" data-name="Layer 1"><polygon class="cls-1" points="138.19 103.59 94.54 78.39 92.13 79.78 138.19 106.38 184.25 79.78 181.84 78.39 138.19 103.59"/><polygon class="cls-1" points="94.52 78.41 94.52 78.41 138.17 53.21 94.52 78.41"/><polygon class="cls-1" points="181.82 78.41 138.17 53.21 181.82 78.41 181.82 78.41"/><path class="cls-1" d="M145.49,78.84l-5.7-3.29,3.5-.15c1.4-.06,2.75-.16,4.05-.28a26.27,26.27,0,0,0,3.62-.6,11,11,0,0,0,2.91-1.12,4.93,4.93,0,0,0,2-1.87,2.48,2.48,0,0,0,.11-2.17,4.57,4.57,0,0,0-2-2A11.6,11.6,0,0,0,150,66a12.71,12.71,0,0,0-3.89,0A9.07,9.07,0,0,0,142.88,67a5.66,5.66,0,0,0-1.21.94,3.52,3.52,0,0,0-.84,1.22,1.52,1.52,0,0,0,0,1.2l3,.08a1.68,1.68,0,0,1,.39-1.06,4.21,4.21,0,0,1,1.25-1,4.86,4.86,0,0,1,1.07-.43,6.28,6.28,0,0,1,1.39-.2,6.17,6.17,0,0,1,1.58.15,5.82,5.82,0,0,1,1.6.64,3.34,3.34,0,0,1,.92.75,1.78,1.78,0,0,1,.43.87,1.31,1.31,0,0,1-.25.94A3.42,3.42,0,0,1,151,72a10,10,0,0,1-3.2,1.07,35.94,35.94,0,0,1-4.51.51q-2.54.15-5.46.15l-6,0,11.21,6.48Z"/><path class="cls-1" d="M150.29,78.93a4.44,4.44,0,0,0-1.19,2.34,3.21,3.21,0,0,0,.54,2.21,6.36,6.36,0,0,0,2.19,1.92,11.62,11.62,0,0,0,3.31,1.28,14.59,14.59,0,0,0,3.78.33,16.8,16.8,0,0,0,4.06-.67,18.28,18.28,0,0,0,4.07-1.77,11.61,11.61,0,0,0,3-2.31,4.52,4.52,0,0,0,1.17-2.33,3.17,3.17,0,0,0-.54-2.2,6.25,6.25,0,0,0-2.2-1.93,12.43,12.43,0,0,0-3.34-1.34,13.07,13.07,0,0,0-3.72-.36,16.5,16.5,0,0,0-4,.7,19.09,19.09,0,0,0-4.14,1.82A11.48,11.48,0,0,0,150.29,78.93Zm5.62-.79a16.08,16.08,0,0,1,3.55-1.49,10.35,10.35,0,0,1,3.45-.39,6.82,6.82,0,0,1,3.08.95A2.9,2.9,0,0,1,167.63,79a2.42,2.42,0,0,1-.61,2,9,9,0,0,1-2.55,2,15.43,15.43,0,0,1-3.58,1.51,11,11,0,0,1-3.54.39,7.53,7.53,0,0,1-3.13-.92,3,3,0,0,1-1.58-1.81,2.42,2.42,0,0,1,.7-2A10.19,10.19,0,0,1,155.91,78.14Z"/><path class="cls-1" d="M126.67,87.05a28.22,28.22,0,0,0,3.62-.59,11,11,0,0,0,2.91-1.12,4.79,4.79,0,0,0,2-1.88,2.45,2.45,0,0,0,.11-2.16,4.47,4.47,0,0,0-2-2,11.34,11.34,0,0,0-3.91-1.4,12.47,12.47,0,0,0-3.9,0,9.42,9.42,0,0,0-3.21,1.07,6,6,0,0,0-1.2.94,3.92,3.92,0,0,0-.85,1.22,1.57,1.57,0,0,0,0,1.2l3,.09a1.67,1.67,0,0,1,.4-1.06,4.15,4.15,0,0,1,1.24-1,4.59,4.59,0,0,1,1.07-.43,5.89,5.89,0,0,1,1.39-.2,6.13,6.13,0,0,1,1.58.15,5.58,5.58,0,0,1,1.61.64,3.34,3.34,0,0,1,.92.75,1.77,1.77,0,0,1,.42.87,1.23,1.23,0,0,1-.25.93,3.33,3.33,0,0,1-1.12.94A10.25,10.25,0,0,1,127.17,85a38.09,38.09,0,0,1-4.52.51q-2.54.13-5.46.15l-6,0,11.22,6.48,2.44-1.41-5.7-3.29,3.5-.15C124,87.28,125.37,87.18,126.67,87.05Z"/><path class="cls-1" d="M142.3,98.27a18.57,18.57,0,0,0,4.08-1.76,11.76,11.76,0,0,0,3-2.31,4.52,4.52,0,0,0,1.17-2.33,3.2,3.2,0,0,0-.53-2.2,6.36,6.36,0,0,0-2.2-1.94,12.83,12.83,0,0,0-3.35-1.34,13,13,0,0,0-3.72-.35,16.58,16.58,0,0,0-4,.7,19,19,0,0,0-4.14,1.81,11.85,11.85,0,0,0-3,2.31,4.52,4.52,0,0,0-1.2,2.35,3.21,3.21,0,0,0,.55,2.21,6.18,6.18,0,0,0,2.19,1.92,11.8,11.8,0,0,0,3.31,1.28,14.56,14.56,0,0,0,3.78.33A16.35,16.35,0,0,0,142.3,98.27Zm-5.62-1.42a7.2,7.2,0,0,1-3.13-.92,2.91,2.91,0,0,1-1.58-1.8,2.38,2.38,0,0,1,.69-2,10.5,10.5,0,0,1,2.58-2.05,16,16,0,0,1,3.54-1.48,10.44,10.44,0,0,1,3.46-.39,6.77,6.77,0,0,1,3.07.94A2.92,2.92,0,0,1,147,90.92a2.44,2.44,0,0,1-.61,2,9,9,0,0,1-2.55,2,15.25,15.25,0,0,1-3.58,1.51A10.65,10.65,0,0,1,136.68,96.85Z"/><polygon class="cls-1" points="0 26.59 46.06 53.19 2.55 28.07 46.06 2.95 87.02 26.59 89.57 28.07 46.06 53.19 92.13 26.59 46.06 0 0 26.59"/><path class="cls-1" d="M42.69,17.38a25.12,25.12,0,0,0,4.81-.57,14.83,14.83,0,0,0,4.28-1.63A5,5,0,0,0,54,13a2.71,2.71,0,0,0-.07-2.39,5.55,5.55,0,0,0-2.29-2.17,10.47,10.47,0,0,0-3.51-1.21A14.18,14.18,0,0,0,44,7.14a10.19,10.19,0,0,0-3.86,1.29,4.43,4.43,0,0,0-2,2,2.53,2.53,0,0,0,0,2.12,3.88,3.88,0,0,0,1.72,1.77,8.5,8.5,0,0,0,3.56,1.17,2.61,2.61,0,0,0,.4,0l-.39,0a29.83,29.83,0,0,1-4.72,0,51,51,0,0,1-5.79-.81l-.12,2.06c1.59.19,3.22.35,4.89.49A49.57,49.57,0,0,0,42.69,17.38Zm.23-3.78a3.07,3.07,0,0,1-1.25-1.19,1.45,1.45,0,0,1,0-1.33A2.9,2.9,0,0,1,42.9,9.85a6.08,6.08,0,0,1,2.19-.76,7.52,7.52,0,0,1,2.32,0,5.89,5.89,0,0,1,2.08.71A2.66,2.66,0,0,1,50.66,11a1.6,1.6,0,0,1,0,1.32,2.7,2.7,0,0,1-1.09,1.19l-.5.29a5.53,5.53,0,0,1-3,.69A6.72,6.72,0,0,1,42.92,13.6Z"/><polygon class="cls-1" points="59.21 12.72 56.78 14.13 63.84 18.21 44.22 22.99 47.05 24.63 69.96 18.93 59.21 12.72"/><path class="cls-1" d="M79.11,24,56.4,25.49h0l7.53,4.35L60,32.11l2.54,1.46,3.9-2.25,2.11,1.22,2-1.14-2.11-1.22L79.14,24ZM65.88,28.72l-3.72-2.15,8.55-.64Z"/><path class="cls-1" d="M30.83,29.77a11.55,11.55,0,0,0,3-2.32A4.49,4.49,0,0,0,35,25.13a3.24,3.24,0,0,0-.53-2.21A6.45,6.45,0,0,0,32.25,21a12.83,12.83,0,0,0-3.35-1.34,13,13,0,0,0-3.72-.35,16.55,16.55,0,0,0-4,.69,19.58,19.58,0,0,0-4.14,1.82,11.85,11.85,0,0,0-3,2.31,4.53,4.53,0,0,0-1.2,2.34,3.14,3.14,0,0,0,.55,2.21,6.29,6.29,0,0,0,2.19,1.93,11.8,11.8,0,0,0,3.31,1.28,15.48,15.48,0,0,0,3.78.33,16.82,16.82,0,0,0,4.05-.68A18.57,18.57,0,0,0,30.83,29.77Zm-9.7.34A7.43,7.43,0,0,1,18,29.19a2.92,2.92,0,0,1-1.57-1.8,2.36,2.36,0,0,1,.69-2,10.05,10.05,0,0,1,2.58-2.05,15.77,15.77,0,0,1,3.54-1.48,10.44,10.44,0,0,1,3.46-.39,6.65,6.65,0,0,1,3.07.94,2.92,2.92,0,0,1,1.64,1.78,2.41,2.41,0,0,1-.61,2,8.79,8.79,0,0,1-2.55,2,14.84,14.84,0,0,1-3.58,1.51A10.41,10.41,0,0,1,21.13,30.11Z"/><polygon class="cls-1" points="38.71 27.74 40.5 28.77 26.55 36.83 29.09 38.3 45.48 28.83 41.15 26.33 38.71 27.74"/><path class="cls-1" d="M133.51,29.06a4.23,4.23,0,0,0-1.75.61,7,7,0,0,0-1.89,1.67,8.93,8.93,0,0,0-1.4,2.39,7.1,7.1,0,0,0-.52,2.65,3.43,3.43,0,0,0,.52,2,2,2,0,0,0,1.4.84,3.05,3.05,0,0,0,1.89-.48,6.91,6.91,0,0,0,1.8-1.48,9.84,9.84,0,0,0,1.32-1.95,8.2,8.2,0,0,0,.76-2.2v-2.5a2.12,2.12,0,0,0-.79-1.23A2,2,0,0,0,133.51,29.06Z"/><path class="cls-1" d="M68.32,67a3.21,3.21,0,0,0-1.94.53A7.22,7.22,0,0,0,64.6,69a8.87,8.87,0,0,0-1.32,2,8.24,8.24,0,0,0-.74,2.23v2.22a2.25,2.25,0,0,0,.66,1.36,1.82,1.82,0,0,0,1.3.5,3.27,3.27,0,0,0,1.69-.51,7.62,7.62,0,0,0,2-1.75,10.15,10.15,0,0,0,1.47-2.46,7,7,0,0,0,.56-2.66,3.56,3.56,0,0,0-.52-2.06A1.86,1.86,0,0,0,68.32,67Z"/><polygon class="cls-1" points="89.26 61.88 90.21 55.22 85.09 60.35 89.26 61.88"/><path class="cls-1" d="M119.76,37.36a2.31,2.31,0,0,0-2,.4,6.36,6.36,0,0,0-1.85,1.64,8.39,8.39,0,0,0-1.28,2.31,7.47,7.47,0,0,0-.47,2.6c0,.24,0,.47,0,.69l6.59-6.61A1.89,1.89,0,0,0,119.76,37.36Z"/><path class="cls-1" d="M138.19,0,92.13,26.59,46.06,53.19,0,26.59V79.78l46.06,26.6,46.07-26.6,46.06-26.59,46.06,26.59V26.59ZM56.66,84.31l-2.33,1.35-.17-2.33a10.64,10.64,0,0,1-.9,1.91,11.38,11.38,0,0,1-1.58,2,9.4,9.4,0,0,1-2,1.55,2.74,2.74,0,0,1-2.6.4A2.35,2.35,0,0,1,46.06,87V77.3l2.58-1.49v8.66a1.89,1.89,0,0,0,.55,1.41c.33.26.85.2,1.54-.18a5.38,5.38,0,0,0,1.69-1.62,9.88,9.88,0,0,0,1.22-2.48,8.89,8.89,0,0,0,.47-2.83V72.66l2.55-1.48ZM72,72.51a12.92,12.92,0,0,1-2.18,3.67,12,12,0,0,1-3.14,2.66,5,5,0,0,1-2.49.74,2.24,2.24,0,0,1-1.69-.68v8.34L60,88.72V69.09l2.22-1.29.24,2.09A15.79,15.79,0,0,1,64.35,67a10.68,10.68,0,0,1,2.83-2.41,4.84,4.84,0,0,1,2.87-.79,2.68,2.68,0,0,1,2,1.31,6.21,6.21,0,0,1,.74,3.3A11.18,11.18,0,0,1,72,72.51Zm31.17-22a13.06,13.06,0,0,1-2.22,3.7A12.21,12.21,0,0,1,97.7,57a6.79,6.79,0,0,1-2.15.82c-.72.14-3,.23-3.68.27v-.05L90,72.11,87.5,74.22l1.31-9.15-7.58-2.89,3.63-3.65-2.27.14a3.82,3.82,0,0,0-1.61.57,6.4,6.4,0,0,0-1.86,1.66,8.77,8.77,0,0,0-1.32,2.35,7.3,7.3,0,0,0-.49,2.56,3.48,3.48,0,0,0,.5,2,1.84,1.84,0,0,0,1.38.83,3.44,3.44,0,0,0,2-.58,5.88,5.88,0,0,0,1.33-1,7.18,7.18,0,0,0,1.23-1.55l1.64.63A11.37,11.37,0,0,1,83.15,69,10.63,10.63,0,0,1,81,70.61a6.35,6.35,0,0,1-3.27,1,2.71,2.71,0,0,1-2.22-1.14,5.41,5.41,0,0,1-.8-3.2,10.54,10.54,0,0,1,.86-4.13A14.15,14.15,0,0,1,77.8,59.5a11.17,11.17,0,0,1,3-2.56,7.67,7.67,0,0,1,2.44-1c.72-.14,3.5-.23,4.5-.29l5.21-5.23-.68,5c.74,0,3.5-.16,3.91-.23a4.05,4.05,0,0,0,1.34-.52,7,7,0,0,0,2-1.78,9.24,9.24,0,0,0,1.38-2.42,7.14,7.14,0,0,0,.49-2.54,3.59,3.59,0,0,0-.48-2,1.8,1.8,0,0,0-1.32-.83,3,3,0,0,0-1.86.46,7,7,0,0,0-1.62,1.33,8.46,8.46,0,0,0-1.42,1.89l-1.6-.61a16.69,16.69,0,0,1,2.42-3.29A12.11,12.11,0,0,1,98,43a5.39,5.39,0,0,1,3-.84,2.86,2.86,0,0,1,2.22,1.1,4.91,4.91,0,0,1,.85,3.15A10.94,10.94,0,0,1,103.18,50.56Zm5.57,4-2.58,1.49V31.51L108.75,30Zm7.24-7.3a3.25,3.25,0,0,0,2-.55,6.22,6.22,0,0,0,1.44-1.14,15.32,15.32,0,0,0,1.34-1.6l1.15,1.52A16.39,16.39,0,0,1,120,47.67a10.5,10.5,0,0,1-2.07,1.61,6.1,6.1,0,0,1-3.35,1,2.7,2.7,0,0,1-2.17-1.22,5.48,5.48,0,0,1-.77-3.15,10.59,10.59,0,0,1,.86-4,15.59,15.59,0,0,1,2.3-3.86A11.22,11.22,0,0,1,118,35.27c1.5-.87,2.75-1.08,3.74-.64a4,4,0,0,1,2,3l-9,8.85A1.7,1.7,0,0,0,116,47.26Zm22.2-10-2.55,1.48v-2a16.06,16.06,0,0,1-1.8,2.62A11,11,0,0,1,131,41.74a4.73,4.73,0,0,1-2.86.77,2.7,2.7,0,0,1-2-1.3,6,6,0,0,1-.75-3.26,11.31,11.31,0,0,1,.79-4.2,13,13,0,0,1,2.15-3.62,11.26,11.26,0,0,1,3-2.57,5.49,5.49,0,0,1,2.56-.81,2.36,2.36,0,0,1,1.78.61V14.18l2.55-1.47Z"/></g></g></svg>