<svg xmlns="http://www.w3.org/2000/svg" viewBox="0 0 88.61 88.61"><defs><style>.cls-1{fill:#231f20;}</style></defs><g id="Layer_2" data-name="Layer 2"><g id="Layer_1-2" data-name="Layer 1"><path d="M27.11,71.42a27.11,27.11,0,0,1-7-53.3l1.43,5.37A21.55,21.55,0,1,0,42.34,59.55l3.93,3.93A26.91,26.91,0,0,1,27.11,71.42Z"/><path d="M44.31,88.61A27.1,27.1,0,0,1,18.12,68.53l5.37-1.43A21.55,21.55,0,1,0,59.54,46.27l3.93-3.93A27.1,27.1,0,0,1,44.31,88.61Z"/><path d="M68.52,70.5l-1.43-5.37a21.56,21.56,0,0,0,0-41.64,21.8,21.8,0,0,0-11.17,0,21.54,21.54,0,0,0-9.65,5.58l-3.93-3.93A27.11,27.11,0,1,1,68.52,70.5Z"/><path d="M25.14,46.27A27.12,27.12,0,0,1,37.29.91a27.12,27.12,0,0,1,33.2,19.18l-5.37,1.43A21.55,21.55,0,1,0,29.07,42.34Z"/><polygon class="cls-1" points="61.5 55.41 55.62 55.42 55.62 38.23 61.5 38.22 61.5 55.41"/><rect class="cls-1" x="55.62" y="38.22" width="17.2" height="6.09"/><rect class="cls-1" x="33.17" y="55.42" width="17.2" height="6.09"/><rect class="cls-1" x="44.29" y="55.42" width="6.09" height="17.2"/><rect class="cls-1" x="27.08" y="33.21" width="6.09" height="17.2"/><rect class="cls-1" x="15.97" y="44.32" width="17.2" height="6.09"/><rect class="cls-1" x="38.42" y="27.12" width="17.2" height="6.09"/><rect class="cls-1" x="38.42" y="16.01" width="6.09" height="17.2"/></g></g></svg>