<svg xmlns="http://www.w3.org/2000/svg" viewBox="0 0 52.01 75.28"><defs><style>.cls-1{fill:#231f20;}.cls-2{fill:#fff;}</style></defs><g id="Layer_2" data-name="Layer 2"><g id="Layer_3" data-name="Layer 3"><rect class="cls-1" width="52.01" height="75.28"/><path class="cls-2" d="M39.21,35.2a14.54,14.54,0,0,0-6.06-5.66c2.36,2.7,3.38,6.58,1.75,9.36s-5.12,3.76-8.42,3.5a42.25,42.25,0,0,0-8.64.1,12.13,12.13,0,0,1-2.49,0A1.41,1.41,0,0,1,14,41.25,25.31,25.31,0,0,1,13.77,36c-.78.54-3.69,2.79-3.42,8.15a13.14,13.14,0,0,0,3.71,7.57,16.73,16.73,0,0,0,16,4.41A14.77,14.77,0,0,0,41,43.57,13.78,13.78,0,0,0,39.21,35.2Z"/><path class="cls-2" d="M12,25.74A14.51,14.51,0,0,0,18,31.39c-2.36-2.69-3.38-6.57-1.75-9.36s5.12-3.75,8.42-3.49a42.25,42.25,0,0,0,8.64-.11,12.84,12.84,0,0,1,2.49,0,1.41,1.41,0,0,1,1.32,1.24A25.31,25.31,0,0,1,37.41,25c.78-.55,3.69-2.79,3.42-8.15a13.11,13.11,0,0,0-3.71-7.57,16.71,16.71,0,0,0-16-4.41A14.77,14.77,0,0,0,10.23,17.36,13.81,13.81,0,0,0,12,25.74Z"/><path class="cls-2" d="M7.85,68v-1.3c0-.21-.11-.31-.33-.31H6.27a1.72,1.72,0,0,1-1.36-.47,2,2,0,0,1-.39-1.33V62.71c0-1.18.63-1.77,1.9-1.77H8.2c1.26,0,1.9.59,1.9,1.77v1.1H7.82V63a.29.29,0,0,0-.32-.32H7.12a.29.29,0,0,0-.33.32V64.4c0,.21.11.31.33.31H8.34a1.82,1.82,0,0,1,1.37.44,1.89,1.89,0,0,1,.41,1.31v1.88c0,1.19-.63,1.78-1.9,1.78H6.46c-1.28,0-1.92-.59-1.92-1.78v-1.1H6.82V68a.29.29,0,0,0,.32.32h.38A.29.29,0,0,0,7.85,68Z"/><path class="cls-2" d="M15.92,60.94v1.78H14.31v7.4H12v-7.4h-1.6V60.94Z"/><path class="cls-2" d="M19.83,60.94h2.28v7.4c0,1.19-.64,1.78-1.91,1.78H18.27c-1.27,0-1.91-.59-1.91-1.78v-7.4h2.28V68a.28.28,0,0,0,.32.32h.55a.29.29,0,0,0,.32-.32Z"/><path class="cls-2" d="M23.14,60.94H27c1.27,0,1.91.59,1.91,1.77v5.63c0,1.19-.64,1.78-1.91,1.78H23.14Zm3.47,7.22V62.89c0-.2-.11-.31-.33-.31h-.87v5.89h.87C26.5,68.47,26.61,68.37,26.61,68.16Z"/><path class="cls-2" d="M29.74,60.94H32v9.18H29.74Z"/><path class="cls-2" d="M34.78,60.94h1.93c1.27,0,1.91.59,1.91,1.77v5.63c0,1.19-.64,1.78-1.91,1.78H34.78c-1.27,0-1.91-.59-1.91-1.78V62.71C32.87,61.53,33.51,60.94,34.78,60.94ZM36.34,68V63a.29.29,0,0,0-.32-.32h-.55a.28.28,0,0,0-.32.32v5a.28.28,0,0,0,.32.32H36A.29.29,0,0,0,36.34,68Z"/><path class="cls-2" d="M47.43,62.71v1.11a1.77,1.77,0,0,1-.62,1.62.92.92,0,0,1,.49.52,2.75,2.75,0,0,1,.13,1v1.43c0,1.19-.64,1.78-1.91,1.78H43.78c-1.28,0-1.91-.59-1.91-1.78V66.91c0-.78.2-1.27.61-1.47-.41-.25-.61-.79-.61-1.62V62.71c0-1.18.63-1.77,1.91-1.77h1.74C46.79,60.94,47.43,61.53,47.43,62.71ZM45.26,64.4V63a.29.29,0,0,0-.33-.32h-.57A.29.29,0,0,0,44,63V64.4a.28.28,0,0,0,.32.31h.57C45.15,64.71,45.26,64.61,45.26,64.4Zm0,3.64V66.53a.29.29,0,0,0-.33-.32h-.57a.29.29,0,0,0-.32.32V68a.29.29,0,0,0,.32.32h.57A.29.29,0,0,0,45.26,68Z"/></g></g></svg>