<svg xmlns="http://www.w3.org/2000/svg" viewBox="0 0 42.91 65.8"><defs><style>.cls-1{fill:#231f20;}</style></defs><g id="Layer_2" data-name="Layer 2"><g id="Layer_3" data-name="Layer 3"><path class="cls-1" d="M34.69,30.88a14.54,14.54,0,0,0-6.06-5.66C31,27.92,32,31.8,30.38,34.58s-5.12,3.76-8.41,3.5a42.36,42.36,0,0,0-8.65.1,12.13,12.13,0,0,1-2.49,0,1.41,1.41,0,0,1-1.32-1.24,24.66,24.66,0,0,1-.25-5.28c-.78.54-3.7,2.79-3.43,8.15a13.14,13.14,0,0,0,3.71,7.57,16.74,16.74,0,0,0,16,4.41,14.8,14.8,0,0,0,10.9-12.53A13.86,13.86,0,0,0,34.69,30.88Z"/><path class="cls-1" d="M7.45,21.42a14.57,14.57,0,0,0,6.06,5.65c-2.36-2.69-3.37-6.57-1.75-9.36s5.13-3.75,8.42-3.49a42.25,42.25,0,0,0,8.64-.11,12.94,12.94,0,0,1,2.5,0,1.42,1.42,0,0,1,1.32,1.24,25.32,25.32,0,0,1,.25,5.28c.78-.55,3.69-2.79,3.42-8.15A13.11,13.11,0,0,0,32.6,4.93a16.7,16.7,0,0,0-16-4.41A14.78,14.78,0,0,0,5.71,13,13.81,13.81,0,0,0,7.45,21.42Z"/><path class="cls-1" d="M3.33,63.69v-1.3c0-.21-.11-.31-.33-.31H1.75A1.68,1.68,0,0,1,.4,61.61,2,2,0,0,1,0,60.28V58.39c0-1.18.63-1.77,1.9-1.77H3.68c1.26,0,1.9.59,1.9,1.77v1.1H3.3v-.77A.29.29,0,0,0,3,58.4H2.6a.28.28,0,0,0-.32.32v1.36c0,.21.1.31.32.31H3.82a1.82,1.82,0,0,1,1.37.44,1.84,1.84,0,0,1,.41,1.31V64c0,1.19-.63,1.78-1.89,1.78H1.94C.66,65.8,0,65.21,0,64v-1.1H2.3v.77a.29.29,0,0,0,.33.32H3A.29.29,0,0,0,3.33,63.69Z"/><path class="cls-1" d="M11.4,56.62V58.4H9.79v7.4H7.51V58.4H5.92V56.62Z"/><path class="cls-1" d="M15.31,56.62h2.28V64c0,1.19-.64,1.78-1.91,1.78H13.75c-1.27,0-1.91-.59-1.91-1.78v-7.4h2.28v7.07a.29.29,0,0,0,.32.32H15a.28.28,0,0,0,.32-.32Z"/><path class="cls-1" d="M18.62,56.62h3.83c1.28,0,1.91.59,1.91,1.77V64c0,1.19-.63,1.78-1.91,1.78H18.62Zm3.47,7.22V58.57c0-.2-.11-.31-.33-.31h-.87v5.89h.87C22,64.15,22.09,64.05,22.09,63.84Z"/><path class="cls-1" d="M25.22,56.62H27.5V65.8H25.22Z"/><path class="cls-1" d="M30.26,56.62h1.93c1.27,0,1.91.59,1.91,1.77V64c0,1.19-.64,1.78-1.91,1.78H30.26c-1.27,0-1.91-.59-1.91-1.78V58.39C28.35,57.21,29,56.62,30.26,56.62Zm1.56,7.07v-5a.28.28,0,0,0-.32-.32H31a.29.29,0,0,0-.32.32v5A.29.29,0,0,0,31,64h.55A.28.28,0,0,0,31.82,63.69Z"/><path class="cls-1" d="M42.91,58.39V59.5a1.77,1.77,0,0,1-.62,1.62.89.89,0,0,1,.49.52,2.75,2.75,0,0,1,.13,1V64c0,1.19-.63,1.78-1.91,1.78H39.26c-1.27,0-1.91-.59-1.91-1.78V62.59c0-.78.2-1.27.61-1.47-.41-.25-.61-.79-.61-1.62V58.39c0-1.18.64-1.77,1.91-1.77H41C42.28,56.62,42.91,57.21,42.91,58.39Zm-2.17,1.69V58.69a.29.29,0,0,0-.32-.32h-.58a.29.29,0,0,0-.32.32v1.39a.28.28,0,0,0,.32.31h.58A.28.28,0,0,0,40.74,60.08Zm0,3.64V62.21a.29.29,0,0,0-.32-.32h-.58a.29.29,0,0,0-.32.32v1.51a.29.29,0,0,0,.32.32h.58A.29.29,0,0,0,40.74,63.72Z"/></g></g></svg>