<svg xmlns="http://www.w3.org/2000/svg" viewBox="0 0 30.89 52.3"><defs><style>.cls-1{fill:#231f20;}</style></defs><g id="Layer_2" data-name="Layer 2"><g id="Layer_3" data-name="Layer 3"><path class="cls-1" d="M29.06,30.88A14.48,14.48,0,0,0,23,25.22c2.37,2.7,3.38,6.58,1.76,9.36s-5.13,3.76-8.42,3.5a42.25,42.25,0,0,0-8.64.1,12.22,12.22,0,0,1-2.5,0,1.41,1.41,0,0,1-1.32-1.24,24.66,24.66,0,0,1-.25-5.28C2.85,32.19-.06,34.44.2,39.8a13.21,13.21,0,0,0,3.72,7.57,16.72,16.72,0,0,0,16,4.41,14.8,14.8,0,0,0,10.9-12.53A13.71,13.71,0,0,0,29.06,30.88Z"/><path class="cls-1" d="M1.83,21.42a14.46,14.46,0,0,0,6.06,5.65c-2.37-2.69-3.38-6.57-1.76-9.36s5.13-3.75,8.42-3.49a42.25,42.25,0,0,0,8.64-.11,12.93,12.93,0,0,1,2.5,0A1.41,1.41,0,0,1,27,15.37a24.66,24.66,0,0,1,.25,5.28C28,20.1,31,17.86,30.69,12.5A13.18,13.18,0,0,0,27,4.93,16.7,16.7,0,0,0,11,.52,14.8,14.8,0,0,0,.08,13,13.74,13.74,0,0,0,1.83,21.42Z"/></g></g></svg>